<svg xmlns="http://www.w3.org/2000/svg" width="32" height="32" viewBox="0 0 32 32">
    <path fill="#FF562A" fill-rule="evenodd" d="M37 21L34.199 17.375 29.755 17.375 32.863 14.263 32.315 9.685 27.769 9.102 24.627 12.247 24.627 7.849 21 5 17.372 7.801 17.372 12.244 14.265 9.137 9.685 9.685 9.102 14.23 12.245 17.375 7.847 17.375 5 21 7.801 24.625 12.245 24.625 9.137 27.737 9.685 32.313 14.231 32.9 17.372 29.755 17.372 34.153 21 37 24.627 34.199 24.627 29.755 27.735 32.863 32.315 32.313 32.898 27.77 29.755 24.625 34.151 24.625z" transform="translate(-5 -5)"/>
</svg>
