<svg xmlns="http://www.w3.org/2000/svg" width="26" height="26" viewBox="0 0 26 26">
    <g fill="none" fill-rule="evenodd" stroke="#25D366" stroke-linecap="round" stroke-linejoin="round" stroke-width="1.25">
        <path d="M12 .158C5.485.135.182 5.39.147 11.905c-.004 2.477.786 4.89 2.253 6.884L.926 23.158l4.548-1.442c5.471 3.592 12.82 2.07 16.413-3.402 1.25-1.906 1.927-4.13 1.945-6.409C23.797 5.4 18.506.146 12 .158" transform="translate(1 1)"/>
        <path d="M18.39 14.8c-.074-.126-.285-.21-.59-.358-.305-.147-1.832-.895-2.105-1-.274-.105-.495-.158-.695.158-.2.316-.526.768-.705.968-.18.2-.358.232-.674.074-1.801-.785-3.321-2.099-4.358-3.768-.179-.306 0-.474.137-.621.516-.516.526-.442.653-.695.091-.167.091-.37 0-.537-.158-.179-.737-1.674-1-2.284-.264-.61-1.59-.726-2.106-.158-5.473 5.768 7.864 15.653 11.274 9.632.284-.407.348-.928.168-1.39" transform="translate(1 1)"/>
    </g>
</svg>
