<svg xmlns="http://www.w3.org/2000/svg" width="21" height="21" viewBox="0 0 21 21">
    <g fill="none" fill-rule="evenodd" stroke="#F46924" stroke-linecap="round" stroke-linejoin="round">
        <path d="M19.549 21l-2.733-4v-4.667c0-1.777-3.46-3.679-4.781-4.666M13.793 13.484l-3.323-2.6a1.207 1.207 0 0 0-1.146-.3c-.41.108-.73.42-.84.82-.11.4.008.826.308 1.119l3.218 3.544v2.222c0 1.05 1.537 2.707 1.537 2.707"/>
        <path d="M12.026 18.488a1.355 1.355 0 0 1-1.357 1.179H2.472c-.754 0-1.366-.597-1.366-1.334v-16C1.106 1.597 1.718 1 2.472 1h8.197c.754 0 1.366.597 1.366 1.333v9.778"/>
        <path d="M6.57 13c-1.255-.002-2.347-.838-2.648-2.027-.302-1.189.266-2.425 1.376-2.997a2.78 2.78 0 0 1 3.313.58M3.497 3c.188 0 .341.15.341.333a.338.338 0 0 1-.341.334.338.338 0 0 1-.342-.334c0-.184.153-.333.342-.333M9.644 17c.189 0 .342.15.342.333a.338.338 0 0 1-.342.334.338.338 0 0 1-.341-.334c0-.184.153-.333.341-.333"/>
    </g>
</svg>
