<svg xmlns="http://www.w3.org/2000/svg" width="20" height="20" viewBox="0 0 20 20">
    <g fill="none" fill-rule="evenodd" stroke="#F46924" stroke-linecap="round" stroke-linejoin="round">
        <path d="M6.833 15.604h-4.97a1.245 1.245 0 0 1-1.242-1.249V5.617c0-.69.556-1.248 1.242-1.248h12.423c.687 0 1.243.559 1.243 1.248v1.249"/>
        <path d="M15.128 4.7l-2.336-3.52A1.24 1.24 0 0 0 11.76.624H4.39a1.24 1.24 0 0 0-1.034.556L1.022 4.7M8.075.624V4.37M12.423 15.604H9.317v3.12"/>
        <path d="M18.773 16.214a4.615 4.615 0 0 1-4.68 3.125 4.622 4.622 0 0 1-4.215-3.735M16.15 13.107h3.106v-3.12"/>
        <path d="M9.8 12.497a4.615 4.615 0 0 1 4.68-3.125 4.622 4.622 0 0 1 4.215 3.735"/>
    </g>
</svg>
