<svg xmlns="http://www.w3.org/2000/svg" width="22" height="20" viewBox="0 0 22 20">
    <g fill="none" fill-rule="evenodd" stroke="#F46924" stroke-linecap="round" stroke-linejoin="round" transform="translate(1.46 .446)">
        <ellipse cx="4.476" cy="4.448" rx="4.439" ry="4.305"/>
        <path d="M6.252 5.31H4.476V2.295M14.242 10.475h3.373c.376 0 .71.229.837.572l1.584 4.305a.84.84 0 0 1-.111.786.897.897 0 0 1-.728.364H18.16"/>
        <path d="M9.283 16.502h4.971l-.008-7.749a.875.875 0 0 0-.887-.86H9.808M4.476 10.475v5.166c0 .475.398.86.888.86h1.413"/>
        <ellipse cx="16.905" cy="16.932" rx="1.332" ry="1.291"/>
        <ellipse cx="8.028" cy="16.932" rx="1.332" ry="1.291"/>
        <path d="M.038 12.197l2.663.004M1.37 13.919l1.33.004M2.257 15.64l.444.005M19.125 13.058h-4.883M14.252 16.502h1.404"/>
    </g>
</svg>
