<svg xmlns="http://www.w3.org/2000/svg" width="24" height="20" viewBox="0 0 24 20">
    <g fill="none" fill-rule="evenodd">
        <g stroke="#F46924" stroke-linecap="round" stroke-linejoin="round">
            <path d="M13.45 14.621H3.451c-1.227 0-2.221-1.037-2.221-2.318V3.031c0-1.28.994-2.318 2.221-2.318h14.44c1.227 0 2.222 1.038 2.222 2.318v4.636M1.23 4.185h18.884M10.117 6.503H4.563M17.893 6.503H15.67M7.895 8.82H4.563"/>
        </g>
        <path fill="#FFF" d="M10.672 5.558h11.173v10.848H10.672z"/>
        <g stroke="#F46924" stroke-linecap="round" stroke-linejoin="round" transform="translate(12.437 7.969)">
            <path d="M.24 1.801v3.644a5.878 5.878 0 0 0 3.955 5.472l.54.197c.36.131.755.131 1.116 0l.54-.197a5.878 5.878 0 0 0 3.954-5.472V1.8a.731.731 0 0 0-.45-.67A11.747 11.747 0 0 0 5.293.238 11.747 11.747 0 0 0 .69 1.13a.731.731 0 0 0-.45.671z"/>
            <rect width="4.33" height="3.816" x="3.127" y="4.41" rx=".468"/>
            <ellipse cx="5.293" cy="6.349" stroke-width=".75" rx="1" ry="1"/>
            <path d="M6.495 3.694c0-.658-.538-1.192-1.202-1.192-.665 0-1.203.534-1.203 1.192v.716h2.405v-.716z"/>
        </g>
    </g>
</svg>
