<?xml version="1.0" encoding="UTF-8"?>
<svg width="16px" height="17px" viewBox="0 0 16 17" version="1.1" xmlns="http://www.w3.org/2000/svg" xmlns:xlink="http://www.w3.org/1999/xlink">
    <!-- Generator: Sketch 49.3 (51167) - http://www.bohemiancoding.com/sketch -->
    <title>ic_returns</title>
    <desc>Created with Sketch.</desc>
    <defs></defs>
    <g id="Page-1" stroke="none" stroke-width="1" fill="none" fill-rule="evenodd">
        <g id="0-copy" transform="translate(-17.000000, -348.000000)" fill="#FF562A" fill-rule="nonzero" stroke="#FF562A" stroke-width="0.4">
            <g id="Group" transform="translate(17.000000, 345.000000)">
                <g id="ic_returns" transform="translate(0.256684, 3.887701)">
                    <path d="M15.0805348,7.37975936 C14.902881,7.37975936 14.7590374,7.52333222 14.7590374,7.70053476 C14.7590374,8.65371658 14.5729011,9.57820187 14.2048997,10.4481818 C13.849111,11.2885628 13.3405749,12.0433656 12.6919552,12.6919853 C12.0433356,13.3406049 11.2885328,13.849141 10.4481517,14.2049298 C9.57817179,14.5729311 8.6536865,14.7590675 7.70050468,14.7590675 C6.74732286,14.7590675 5.82283757,14.5729311 4.95309826,14.2049298 C4.11271725,13.849141 3.3576738,13.3406049 2.70905414,12.6919853 C2.06067513,12.0433957 1.55165775,11.2885628 1.19610963,10.4481818 C0.82831885,9.57820187 0.641731283,8.65371658 0.641731283,7.70053476 C0.641731283,6.74735294 0.82831885,5.82286765 1.19610963,4.95312834 C1.55165775,4.11253676 2.06067513,3.35770388 2.70905414,2.70908422 C3.35764372,2.06070521 4.11271725,1.55168783 4.95309826,1.19613971 C5.82283757,0.828138369 6.74732286,0.641761364 7.70050468,0.641761364 C8.6536865,0.641761364 9.57817179,0.828108289 10.4481517,1.19613971 C11.2255448,1.52515709 11.9305348,1.98598596 12.5453142,2.56689505 L11.3674933,2.56689505 C11.1907721,2.56689505 11.0469586,2.71046791 11.0469586,2.88767045 C11.0469586,3.06487299 11.1907721,3.20844586 11.3674933,3.20844586 L13.292627,3.20844586 C13.4702807,3.20844586 13.6141243,3.06487299 13.6141243,2.88767045 L13.6141243,0.962566845 C13.6141243,0.785364305 13.4703108,0.641791444 13.292627,0.641791444 C13.1159057,0.641791444 12.9720922,0.785364305 12.9720922,0.962566845 L12.9720922,2.08750668 C11.5940575,0.792884358 9.74033422,0 7.70053476,0 C3.44770388,0 0,3.44770388 0,7.70053476 C0,11.953125 3.44770388,15.4010695 7.70053476,15.4010695 C11.953125,15.4010695 15.4010695,11.953125 15.4010695,7.70053476 C15.4010695,7.52333222 15.257256,7.37975936 15.0805348,7.37975936 Z" id="Shape"></path>
                </g>
            </g>
        </g>
    </g>
</svg>