<svg xmlns="http://www.w3.org/2000/svg" width="117" height="34" viewBox="0 0 117 34">
    <g fill="none" fill-rule="evenodd">
        <path fill="#A6A6A6" d="M112.517 34H4.087C1.834 34 0 32.191 0 29.977V4.017C0 1.802 1.834 0 4.087 0h108.43c2.252 0 4.15 1.802 4.15 4.017v25.96c0 2.214-1.898 4.023-4.15 4.023z"/>
        <path fill="#000" d="M115.831 29.978c0 1.798-1.481 3.255-3.313 3.255H4.087c-1.831 0-3.318-1.457-3.318-3.255V4.016C.77 2.22 2.256.756 4.087.756h108.43c1.833 0 3.313 1.463 3.313 3.26l.001 25.962z"/>
        <g fill="#FFF">
            <path d="M26.037 16.816c-.025-2.74 2.28-4.072 2.386-4.134-1.306-1.873-3.33-2.128-4.041-2.149-1.7-.176-3.349 1-4.215 1-.883 0-2.217-.983-3.654-.954-1.85.028-3.58 1.081-4.528 2.717-1.958 3.334-.498 8.234 1.378 10.93.939 1.32 2.035 2.794 3.47 2.742 1.405-.057 1.93-.88 3.624-.88 1.68 0 2.172.88 3.636.847 1.507-.024 2.456-1.326 3.362-2.658 1.084-1.513 1.52-3.003 1.537-3.08-.035-.012-2.927-1.097-2.955-4.38zM23.271 8.76c.756-.929 1.272-2.193 1.129-3.476-1.093.048-2.46.744-3.248 1.653-.696.8-1.319 2.113-1.158 3.347 1.228.09 2.49-.61 3.277-1.524z"/>
        </g>
        <g fill="#FFF">
            <path fill-rule="nonzero" d="M46.36 26.778h-1.962l-1.075-3.322h-3.737l-1.024 3.322H36.65l3.702-11.311h2.287l3.72 11.311zm-3.362-4.716l-.972-2.954c-.103-.302-.295-1.012-.58-2.131h-.034a81.13 81.13 0 0 1-.546 2.131l-.955 2.954h3.087zM55.881 22.6c0 1.387-.38 2.484-1.143 3.288-.683.717-1.53 1.075-2.543 1.075-1.092 0-1.877-.386-2.355-1.158h-.034v4.297h-1.843v-8.795c0-.872-.023-1.767-.068-2.685h1.62l.103 1.293h.035c.614-.974 1.547-1.46 2.798-1.46.978 0 1.795.38 2.448 1.14.656.762.982 1.763.982 3.005zm-1.877.066c0-.794-.181-1.448-.546-1.963-.398-.538-.933-.806-1.604-.806-.455 0-.868.15-1.237.444-.37.298-.612.686-.725 1.167a2.336 2.336 0 0 0-.085.553v1.36c0 .593.185 1.094.555 1.503.37.409.85.613 1.441.613.694 0 1.234-.264 1.62-.79.388-.525.581-1.219.581-2.08zM65.42 22.6c0 1.387-.382 2.484-1.145 3.288-.682.717-1.53 1.075-2.541 1.075-1.093 0-1.877-.386-2.355-1.158h-.034v4.297h-1.843v-8.795c0-.872-.023-1.767-.068-2.685h1.62l.103 1.293h.035c.614-.974 1.546-1.46 2.798-1.46.978 0 1.794.38 2.45 1.14.652.762.98 1.763.98 3.005zm-1.878.066c0-.794-.182-1.448-.547-1.963-.398-.538-.931-.806-1.603-.806-.455 0-.867.15-1.237.444-.37.298-.611.686-.725 1.167a2.382 2.382 0 0 0-.085.553v1.36c0 .593.185 1.094.553 1.503.37.408.85.613 1.443.613.694 0 1.234-.264 1.62-.79.388-.525.581-1.219.581-2.08z"/>
            <path d="M76.084 23.606c0 .962-.34 1.745-1.022 2.35-.75.66-1.792.99-3.133.99-1.237 0-2.23-.235-2.98-.705l.427-1.51a5.115 5.115 0 0 0 2.663.722c.694 0 1.234-.154 1.622-.462.387-.308.58-.72.58-1.236 0-.459-.16-.846-.479-1.16-.317-.313-.846-.605-1.586-.874-2.014-.739-3.02-1.82-3.02-3.244 0-.93.353-1.692 1.059-2.285.703-.595 1.642-.891 2.815-.891 1.047 0 1.916.18 2.61.537l-.46 1.477c-.648-.346-1.381-.52-2.201-.52-.649 0-1.155.157-1.518.47-.307.28-.46.62-.46 1.024 0 .448.175.817.527 1.108.307.269.865.56 1.674.873.99.392 1.716.85 2.183 1.375.466.524.699 1.18.699 1.961zM82.175 19.982h-2.03v3.96c0 1.007.357 1.51 1.075 1.51.329 0 .602-.028.818-.084l.051 1.376c-.363.134-.84.201-1.433.201-.727 0-1.296-.218-1.707-.655-.408-.436-.614-1.17-.614-2.198V19.98h-1.21v-1.36h1.21v-1.493l1.81-.538v2.031h2.03v1.362z"/>
            <path fill-rule="nonzero" d="M91.339 22.633c0 1.254-.365 2.283-1.093 3.088-.763.829-1.776 1.242-3.038 1.242-1.217 0-2.186-.397-2.908-1.191-.723-.794-1.084-1.796-1.084-3.004 0-1.264.372-2.3 1.117-3.104.744-.806 1.749-1.209 3.011-1.209 1.217 0 2.196.397 2.935 1.192.707.77 1.06 1.766 1.06 2.986zm-1.912.059c0-.753-.163-1.398-.494-1.936-.387-.65-.939-.976-1.654-.976-.741 0-1.304.326-1.69.976-.33.54-.494 1.194-.494 1.97 0 .752.163 1.397.494 1.934.398.651.955.976 1.673.976.704 0 1.256-.332 1.654-.993.34-.548.511-1.2.511-1.951z"/>
            <path d="M97.328 20.216a3.251 3.251 0 0 0-.581-.05c-.648 0-1.15.24-1.502.722-.307.425-.46.962-.46 1.61v4.28h-1.842l.017-5.587c0-.94-.023-1.797-.07-2.568h1.606l.067 1.56h.051a2.79 2.79 0 0 1 .921-1.292c.41-.291.854-.437 1.332-.437.17 0 .324.012.46.033v1.729z"/>
            <path fill-rule="nonzero" d="M105.568 22.314c0 .325-.022.599-.068.822h-5.527c.022.806.289 1.422.802 1.847.466.38 1.068.57 1.808.57.818 0 1.565-.128 2.236-.385l.289 1.258c-.785.336-1.711.504-2.78.504-1.286 0-2.295-.373-3.03-1.116-.733-.744-1.1-1.743-1.1-2.996 0-1.23.341-2.254 1.025-3.07.715-.873 1.682-1.309 2.9-1.309 1.194 0 2.1.436 2.714 1.308.486.693.73 1.55.73 2.567zm-1.757-.47c.012-.537-.108-1.001-.358-1.393-.319-.504-.809-.756-1.468-.756-.603 0-1.093.246-1.467.739-.307.392-.489.862-.545 1.41h3.838z"/>
        </g>
        <g fill="#FFF">
            <path fill-rule="nonzero" d="M42.39 8.508c0 1-.306 1.753-.915 2.259-.564.467-1.366.7-2.405.7-.515 0-.956-.022-1.325-.066V5.935c.481-.077 1-.116 1.56-.116.99 0 1.735.212 2.238.635.564.479.846 1.163.846 2.054zm-.956.024c0-.648-.174-1.146-.523-1.492-.35-.346-.86-.52-1.53-.52-.286 0-.529.019-.73.058v4.156c.111.017.315.024.612.024.693 0 1.228-.19 1.604-.568.377-.38.567-.932.567-1.658zM47.453 9.381c0 .617-.18 1.122-.537 1.518-.375.407-.872.61-1.493.61-.598 0-1.074-.195-1.429-.586-.354-.39-.531-.882-.531-1.475 0-.62.182-1.13.548-1.525.367-.395.86-.593 1.48-.593.598 0 1.078.194 1.442.584.346.38.52.869.52 1.467zm-.94.03c0-.37-.081-.687-.243-.952-.19-.32-.46-.48-.812-.48-.364 0-.64.16-.83.48-.163.265-.243.587-.243.968 0 .37.08.686.243.95.196.32.469.48.821.48.346 0 .617-.162.813-.488.167-.27.251-.589.251-.959z"/>
            <path d="M54.242 7.411l-1.275 4.007h-.83l-.528-1.74a12.846 12.846 0 0 1-.327-1.294h-.017a9.35 9.35 0 0 1-.327 1.294l-.56 1.74h-.84l-1.199-4.007h.931l.46 1.905c.112.45.204.88.277 1.286h.017c.067-.335.179-.762.336-1.277l.578-1.913h.738l.554 1.872c.134.456.243.896.327 1.319h.025c.061-.412.153-.852.276-1.32l.495-1.871h.889zM58.937 11.418h-.906V9.123c0-.707-.273-1.06-.82-1.06a.823.823 0 0 0-.655.29 1.024 1.024 0 0 0-.251.688v2.376h-.906v-2.86c0-.353-.011-.734-.033-1.148h.796l.042.627h.025c.106-.195.263-.355.47-.484.245-.15.52-.225.82-.225.381 0 .697.12.949.363.313.297.469.74.469 1.328v2.4zM61.435 11.418h-.905V5.573h.905z"/>
            <path fill-rule="nonzero" d="M66.767 9.381c0 .617-.18 1.122-.537 1.518-.375.407-.873.61-1.492.61-.6 0-1.076-.195-1.43-.586-.354-.39-.531-.882-.531-1.475 0-.62.182-1.13.548-1.525.367-.395.86-.593 1.48-.593.598 0 1.078.194 1.442.584.346.38.52.869.52 1.467zm-.94.03c0-.37-.082-.687-.243-.952-.19-.32-.461-.48-.812-.48-.365 0-.641.16-.83.48-.163.265-.243.587-.243.968 0 .37.081.686.243.95.196.32.469.48.821.48.346 0 .617-.162.812-.488.168-.27.251-.589.251-.959zM71.15 11.418h-.813l-.068-.461h-.025c-.278.368-.675.552-1.19.552-.384 0-.695-.122-.93-.363a1.128 1.128 0 0 1-.319-.816c0-.49.208-.863.625-1.121.417-.259 1.003-.385 1.757-.38v-.074c0-.528-.281-.791-.846-.791-.402 0-.756.1-1.062.296l-.184-.585c.379-.23.846-.345 1.397-.345 1.065 0 1.6.552 1.6 1.657v1.476c0 .4.02.719.058.955zm-.94-1.377v-.618c-1-.017-1.499.253-1.499.808 0 .209.057.365.174.47a.64.64 0 0 0 .442.156.925.925 0 0 0 .554-.185.758.758 0 0 0 .329-.63zM76.296 11.418h-.803l-.043-.643h-.025c-.256.49-.694.734-1.308.734-.491 0-.9-.19-1.224-.569-.324-.379-.486-.87-.486-1.475 0-.649.176-1.174.528-1.575.342-.374.76-.561 1.258-.561.547 0 .93.18 1.147.544h.018v-2.3h.906v4.766c0 .39.01.75.032 1.079zm-.938-1.69V9.06a1.012 1.012 0 0 0-.353-.82.899.899 0 0 0-.606-.219.934.934 0 0 0-.796.397c-.193.264-.29.601-.29 1.014 0 .396.092.717.277.964.197.264.461.396.792.396.297 0 .535-.11.716-.33.174-.203.26-.448.26-.734zM84.042 9.381c0 .617-.179 1.122-.537 1.518-.375.407-.87.61-1.492.61-.597 0-1.073-.195-1.43-.586-.354-.39-.53-.882-.53-1.475 0-.62.181-1.13.548-1.525.366-.395.859-.593 1.48-.593.597 0 1.079.194 1.442.584.345.38.52.869.52 1.467zm-.938.03c0-.37-.082-.687-.243-.952-.191-.32-.46-.48-.813-.48-.363 0-.64.16-.83.48-.163.265-.244.587-.244.968 0 .37.081.686.243.95.196.32.47.48.822.48.346 0 .618-.162.813-.488.167-.27.252-.589.252-.959z"/>
            <path d="M88.912 11.418h-.905V9.123c0-.707-.273-1.06-.822-1.06a.82.82 0 0 0-.653.29 1.02 1.02 0 0 0-.252.688v2.376h-.906v-2.86c0-.353-.01-.734-.032-1.148h.795l.042.627h.025a1.31 1.31 0 0 1 .47-.484c.246-.15.52-.225.822-.225.379 0 .695.12.947.363.313.297.469.74.469 1.328v2.4zM95.007 8.078h-.997v1.947c0 .495.177.742.528.742.162 0 .297-.014.404-.042l.023.676c-.179.066-.414.1-.704.1-.357 0-.636-.108-.837-.322-.202-.214-.303-.574-.303-1.08v-2.02h-.595V7.41h.595v-.734l.888-.264v.997h.997v.668h.001zM99.802 11.418h-.907V9.14c0-.718-.273-1.078-.82-1.078-.42 0-.707.209-.864.625a1.102 1.102 0 0 0-.042.32v2.41h-.905V5.573h.905v2.414h.017c.285-.439.694-.658 1.224-.658.375 0 .685.12.931.363.307.301.46.75.46 1.344v2.382z"/>
            <path fill-rule="nonzero" d="M104.748 9.225c0 .16-.012.294-.034.404h-2.716c.012.396.141.698.393.907.23.187.526.28.89.28.401 0 .767-.063 1.098-.19l.141.62c-.386.164-.84.247-1.367.247-.63 0-1.128-.183-1.487-.548-.361-.366-.54-.856-.54-1.472 0-.604.167-1.107.503-1.509.35-.428.825-.642 1.424-.642.586 0 1.03.214 1.332.643.243.34.363.76.363 1.26zm-.865-.23a1.184 1.184 0 0 0-.175-.685c-.157-.247-.397-.371-.72-.371a.864.864 0 0 0-.721.363c-.15.193-.24.423-.27.693h1.886z"/>
        </g>
    </g>
</svg>
