<svg xmlns="http://www.w3.org/2000/svg" xmlns:xlink="http://www.w3.org/1999/xlink" width="120" height="34" viewBox="0 0 120 34">
    <defs>
        <path id="a" d="M4.456 7.883L.789 4.374v-.248L4.458.618l4.428 2.405c1.241.675 1.241 1.779 0 2.453L4.54 7.837l-.084.046"/>
        <linearGradient id="b" x1="80.748%" x2="-157.307%" y1="49.998%" y2="49.998%">
            <stop offset="0%" stop-color="#EC942D"/>
            <stop offset="100%" stop-color="#FBDE1E"/>
        </linearGradient>
        <path id="d" d="M15.207 3.587L11.456 0 .386 10.585c.41.414 1.086.465 1.847.052l12.974-7.05"/>
        <linearGradient id="e" x1="86.245%" x2="-50.14%" y1="32.536%" y2="128.651%">
            <stop offset="0%" stop-color="#DD4245"/>
            <stop offset="100%" stop-color="#B72162"/>
        </linearGradient>
        <path id="g" d="M15.207 7.463L2.233.413C1.472 0 .796.051.387.465L11.456 11.05l3.751-3.587"/>
        <linearGradient id="h" x1="-50.749%" x2="60.607%" y1="-29.08%" y2="49.396%">
            <stop offset="0%" stop-color="#6CB966"/>
            <stop offset="100%" stop-color="#299567"/>
        </linearGradient>
    </defs>
    <g fill="none" fill-rule="evenodd">
        <path fill="#0A0B09" d="M115.556 34H4.444C2 34 0 32.087 0 29.75V4.25C0 1.913 2 0 4.444 0h111.112C118 0 120 1.913 120 4.25v25.5c0 2.337-2 4.25-4.444 4.25"/>
        <path fill="#9E9F9B" d="M115.556 0H4.444C2 0 0 1.913 0 4.25v25.5C0 32.087 2 34 4.444 34h111.112C118 34 120 32.087 120 29.75V4.25c0-2.337-2-4.25-4.444-4.25zm0 .68c2.058 0 3.733 1.601 3.733 3.57v25.5c0 1.969-1.675 3.57-3.733 3.57H4.444c-2.058 0-3.733-1.601-3.733-3.57V4.25C.711 2.281 2.386.68 4.444.68h111.112z"/>
        <path fill="#FFFFFE" d="M42.15 8.707c0 .712-.221 1.28-.663 1.702-.501.503-1.155.755-1.959.755-.77 0-1.424-.255-1.963-.766-.538-.51-.808-1.143-.808-1.898 0-.756.27-1.388.808-1.898.539-.51 1.193-.766 1.963-.766.382 0 .748.071 1.095.213.347.143.626.333.834.57l-.469.449c-.353-.403-.839-.605-1.46-.605-.562 0-1.046.188-1.456.566-.41.378-.615.868-.615 1.471 0 .603.205 1.093.615 1.47.41.379.894.567 1.456.567.596 0 1.092-.19 1.49-.57.258-.246.407-.59.447-1.033h-1.937v-.612h2.585c.025.133.037.261.037.385"/>
        <path fill="#FFFFFE" d="M42.15 8.707h-.089c0 .696-.213 1.236-.636 1.642h-.001v.001c-.486.486-1.111.728-1.896.729-.75-.001-1.376-.246-1.9-.741-.522-.496-.78-1.102-.782-1.838.001-.736.26-1.342.782-1.838.524-.495 1.15-.74 1.9-.74.37 0 .724.068 1.06.206.336.138.603.32.801.546l.068-.054-.063-.06-.469.448.063.06.068-.055c-.369-.423-.888-.636-1.528-.635-.582 0-1.094.198-1.518.59-.428.393-.643.91-.642 1.532 0 .621.214 1.139.642 1.532.424.392.936.59 1.518.59.615.001 1.14-.198 1.553-.595.275-.264.432-.63.473-1.085l.008-.093h-1.945v-.443h2.496v-.084l-.088.015c.024.129.036.251.036.37h.178c0-.13-.013-.262-.039-.4l-.013-.07h-2.748v.782h2.026v-.085l-.089-.006c-.04.427-.181.75-.421.98-.383.363-.851.544-1.427.544-.54 0-1-.179-1.395-.542-.392-.363-.586-.825-.587-1.41 0-.585.195-1.047.587-1.41a1.982 1.982 0 0 1 1.395-.542c.602.001 1.055.192 1.392.575l.062.07.538-.514.058-.054-.053-.06a2.293 2.293 0 0 0-.867-.594 2.966 2.966 0 0 0-1.13-.22c-.79 0-1.472.264-2.025.79-.555.525-.835 1.185-.835 1.959s.28 1.434.835 1.96c.553.525 1.235.79 2.025.789.823 0 1.506-.261 2.024-.781l-.065-.059.063.06c.46-.44.69-1.034.69-1.762h-.09M46.247 6.576h-2.43v1.618h2.191v.612h-2.19v1.618h2.43v.626h-3.115v-5.1h3.114v.626"/>
        <path fill="#FFFFFE" d="M46.247 6.576v-.085H43.73V8.28h2.19v.442h-2.19v1.788h2.43v.456h-2.937v-4.93h2.936v.541h.09v-.085.085h.088v-.711h-3.292v5.27h3.292v-.796h-2.43V8.89h2.19v-.782h-2.19V6.661h2.43v-.085h-.089M49.137 11.05h-.686V6.576h-1.49V5.95h3.666v.626h-1.49v4.474"/>
        <path fill="#FFFFFE" d="M49.137 11.05v-.085h-.597V6.491h-1.49v-.456h3.488v.456h-1.49v4.559h.089v-.085.085h.089V6.661h1.49v-.796h-3.844v.796h1.49v4.474h.864v-.085h-.09M53.278 11.05h.686v-5.1h-.686z"/>
        <path fill="#FFFFFE" d="M53.278 11.05h.09V6.035h.506v4.93h-.596v.085h.09-.09v.085h.774v-5.27h-.863v5.27h.09v-.085M57.003 11.05h-.686V6.576h-1.49V5.95h3.665v.626h-1.49v4.474"/>
        <path fill="#FFFFFE" d="M57.003 11.05v-.085h-.597V6.491h-1.49v-.456h3.488v.456h-1.49v4.559h.089v-.085.085h.089V6.661h1.49v-.796h-3.843v.796h1.49v4.474h.863v-.085h-.09M62.026 9.964c.395.382.878.573 1.449.573.571 0 1.055-.19 1.449-.573.394-.383.592-.87.592-1.464 0-.593-.198-1.081-.592-1.464-.394-.382-.878-.573-1.45-.573-.57 0-1.053.19-1.448.573-.394.383-.592.87-.592 1.464 0 .593.198 1.081.592 1.464zm3.404.427c-.523.515-1.176.773-1.955.773-.78 0-1.431-.258-1.955-.773a2.549 2.549 0 0 1-.786-1.891c0-.745.262-1.376.786-1.891.524-.515 1.175-.773 1.955-.773.775 0 1.425.258 1.952.776.526.518.789 1.147.789 1.888 0 .745-.262 1.376-.786 1.891z"/>
        <path fill="#FFFFFE" d="M62.026 9.964l-.063.06c.41.397.92.6 1.512.598.592.001 1.103-.201 1.512-.599.412-.397.62-.912.618-1.523.001-.611-.206-1.125-.618-1.523-.41-.398-.92-.6-1.512-.599-.592 0-1.103.201-1.512.599-.411.398-.619.912-.618 1.523-.001.611.207 1.126.618 1.523l.127-.119c-.378-.366-.566-.829-.567-1.404 0-.575.189-1.038.567-1.404h-.001c.381-.367.835-.547 1.386-.548.55.001 1.006.18 1.385.548.378.367.567.829.568 1.404-.001.575-.19 1.037-.568 1.404-.38.367-.834.548-1.385.548-.55-.001-1.005-.18-1.386-.548l-.063.06zm3.404.427l-.063-.06c-.51.5-1.133.747-1.892.748-.76-.001-1.383-.247-1.891-.747l-.003-.003.003.003c-.508-.5-.76-1.105-.76-1.832 0-.727.252-1.331.76-1.832.508-.5 1.132-.746 1.89-.747.755 0 1.377.25 1.89.75.51.504.762 1.107.763 1.829 0 .727-.252 1.331-.76 1.832l.127.118c.54-.529.812-1.186.81-1.95.002-.76-.272-1.415-.813-1.947-.542-.533-1.22-.803-2.016-.802-.8 0-1.48.268-2.019.8a2.634 2.634 0 0 0-.81 1.949c-.002.764.27 1.421.81 1.95l.003.002-.003-.002c.539.532 1.219.8 2.019.799.8 0 1.48-.267 2.02-.8l-.065-.058zM67.178 11.05v-5.1h.834l2.592 3.967h.03l-.03-.983V5.95h.686v5.1h-.716l-2.71-4.16h-.031l.03.984v3.176h-.685"/>
        <path fill="#FFFFFE" d="M67.178 11.05h.089V6.035h.696l2.592 3.968h.17l-.032-1.07V6.036h.508v4.93h-.577l-2.712-4.16h-.17l.032 1.07v3.09h-.596v.085h.089-.09v.085h.775V7.872l-.03-.984-.09.002v.085h.031V6.89l-.075.045 2.737 4.2h.854v-5.27h-.863v3.071l.029.983.089-.002v-.084h-.03v.084l.076-.044-2.619-4.008h-.972v5.27h.089v-.085M95.054 25.5h1.659V14.874h-1.659V25.5zm14.94-6.798l-1.902 4.607h-.056l-1.974-4.607h-1.786l2.959 6.438-1.687 3.582h1.73l4.56-10.02h-1.844zm-9.406 5.591c-.544 0-1.302-.26-1.302-.902 0-.82.944-1.135 1.758-1.135.73 0 1.072.15 1.516.356-.129.984-1.015 1.681-1.972 1.681zm.2-5.823c-1.201 0-2.445.505-2.96 1.627l1.472.587c.315-.587.9-.78 1.516-.78.858 0 1.73.493 1.744 1.368v.109c-.3-.164-.943-.41-1.73-.41-1.586 0-3.202.834-3.202 2.392 0 1.422 1.3 2.338 2.759 2.338 1.115 0 1.73-.478 2.116-1.04h.057v.821h1.6V21.41c0-1.887-1.471-2.94-3.372-2.94zm-10.251 1.525h-2.36v-3.642h2.36c1.24 0 1.944.982 1.944 1.82 0 .825-.704 1.822-1.944 1.822zm-.043-5.12H86.52V25.5h1.658v-4.026h2.316c1.838 0 3.646-1.273 3.646-3.3s-1.808-3.3-3.646-3.3zm-21.672 9.42c-1.146 0-2.105-.917-2.105-2.177 0-1.273.96-2.205 2.105-2.205 1.132 0 2.019.932 2.019 2.205 0 1.26-.887 2.177-2.019 2.177zm1.904-4.998h-.057c-.372-.424-1.088-.808-1.99-.808-1.89 0-3.623 1.588-3.623 3.629 0 2.026 1.732 3.601 3.623 3.601.902 0 1.618-.383 1.99-.822h.057v.52c0 1.384-.772 2.124-2.018 2.124-1.017 0-1.648-.699-1.905-1.288l-1.447.576a3.6 3.6 0 0 0 3.352 2.136c1.947 0 3.594-1.096 3.594-3.766v-6.491h-1.576v.589zm2.722 6.203h1.661V14.873h-1.661V25.5zm4.11-3.505c-.043-1.397 1.13-2.11 1.975-2.11.66 0 1.218.315 1.404.767l-3.38 1.343zm5.155-1.206c-.315-.807-1.275-2.3-3.237-2.3-1.947 0-3.565 1.465-3.565 3.615 0 2.027 1.604 3.615 3.751 3.615a3.799 3.799 0 0 0 3.151-1.602l-1.289-.822c-.429.603-1.016 1-1.862 1-.844 0-1.446-.37-1.833-1.095l5.055-2-.171-.41zM42.439 19.6v1.533h3.837c-.114.863-.415 1.492-.872 1.931-.56.534-1.433 1.122-2.965 1.122-2.363 0-4.21-1.82-4.21-4.08s1.847-4.08 4.21-4.08c1.275 0 2.205.479 2.893 1.095l1.131-1.082c-.96-.877-2.234-1.548-4.024-1.548-3.236 0-5.957 2.52-5.957 5.615s2.72 5.614 5.957 5.614c1.747 0 3.064-.547 4.095-1.575 1.06-1.013 1.39-2.437 1.39-3.588 0-.356-.029-.684-.087-.958H42.44zm9.848 4.696c-1.146 0-2.134-.904-2.134-2.19 0-1.302.988-2.192 2.134-2.192 1.145 0 2.133.89 2.133 2.191 0 1.287-.988 2.19-2.133 2.19zm0-5.806c-2.091 0-3.795 1.52-3.795 3.615 0 2.081 1.704 3.615 3.795 3.615 2.09 0 3.795-1.534 3.795-3.615 0-2.095-1.704-3.615-3.795-3.615zm8.278 5.806c-1.145 0-2.134-.904-2.134-2.19 0-1.302.989-2.192 2.134-2.192 1.146 0 2.134.89 2.134 2.191 0 1.287-.988 2.19-2.134 2.19zm0-5.806c-2.09 0-3.794 1.52-3.794 3.615 0 2.081 1.704 3.615 3.794 3.615 2.091 0 3.795-1.534 3.795-3.615 0-2.095-1.704-3.615-3.795-3.615z"/>
        <path fill="#60C2E3" d="M9.276 6.415c-.26.262-.411.667-.411 1.193v18.784c0 .526.152.931.41 1.193l.066.061 11.004-10.522v-.248L9.34 6.354l-.065.061"/>
        <g transform="translate(19.556 12.75)">
            <mask id="c" fill="#fff">
                <use xlink:href="#a"/>
            </mask>
            <path fill="url(#b)" d="M4.456 7.883L.789 4.374v-.248L4.458.618l4.428 2.405c1.241.675 1.241 1.779 0 2.453L4.54 7.837l-.084.046" mask="url(#c)"/>
        </g>
        <g transform="translate(8.889 17)">
            <mask id="f" fill="#fff">
                <use xlink:href="#d"/>
            </mask>
            <path fill="url(#e)" d="M15.207 3.587L11.456 0 .386 10.585c.41.414 1.086.465 1.847.052l12.974-7.05" mask="url(#f)"/>
        </g>
        <g transform="translate(8.889 5.95)">
            <mask id="i" fill="#fff">
                <use xlink:href="#g"/>
            </mask>
            <path fill="url(#h)" d="M15.207 7.463L2.233.413C1.472 0 .796.051.387.465L11.456 11.05l3.751-3.587" mask="url(#i)"/>
        </g>
    </g>
</svg>
