<svg xmlns="http://www.w3.org/2000/svg" width="16" height="14" viewBox="0 0 16 14">
    <path fill="#000" fill-rule="nonzero" d="M8 12.859l6.08-6.292c1.02-1.026 1.267-2.54.622-3.82-.446-.934-1.35-1.598-2.418-1.77a3.358 3.358 0 0 0-2.903.921l-1.048 1.04a.473.473 0 0 1-.666 0l-1.05-1.042a3.357 3.357 0 0 0-2.902-.92c-1.066.173-1.972.837-2.422 1.78-.639 1.27-.391 2.783.63 3.812L8 12.858zM8 1.947l.714-.707A4.303 4.303 0 0 1 12.435.056c1.37.22 2.538 1.078 3.113 2.282.822 1.63.503 3.575-.792 4.88L8.34 13.856a.473.473 0 0 1-.68 0L1.248 7.22C-.05 5.909-.368 3.967.447 2.348 1.027 1.134 2.195.276 3.565.056c1.367-.22 2.761.222 3.72 1.182l.715.71z"/>
</svg>
