<svg xmlns="http://www.w3.org/2000/svg" width="14" height="16" viewBox="0 0 14 16">
    <g fill="#000" fill-rule="nonzero">
        <path d="M4.522 6.5c0 .276-.229.5-.511.5a.506.506 0 0 1-.511-.5v-3a3.5 3.5 0 1 1 7 0v3c0 .276-.229.5-.51.5a.506.506 0 0 1-.512-.5v-3A2.49 2.49 0 0 0 7 1a2.49 2.49 0 0 0-2.478 2.5v3z"/>
        <path d="M13.48 13.535c.014.228.021.456.02.681 0 .983-.782 1.784-1.753 1.784H2.253C1.282 16 .5 15.199.5 14.216c0-.227.008-.454.023-.681l.57-8.432A1.172 1.172 0 0 1 2.254 4h9.492c.616 0 1.122.485 1.162 1.102l.57 8.433zm-1.542-8.368c-.008-.112-.093-.194-.19-.194H2.254c-.098 0-.184.082-.191.195l-.57 8.432c-.013.205-.02.41-.02.616 0 .45.351.811.779.811h9.494c.427 0 .78-.36.78-.814a8.512 8.512 0 0 0-.02-.613l-.57-8.433z"/>
    </g>
</svg>
