<svg xmlns="http://www.w3.org/2000/svg" width="18" height="23" viewBox="0 0 18 23">
    <defs>
        <linearGradient id="a" x1=".001%" y1="50%" y2="50%">
            <stop offset="2.75%" stop-color="#F3E69F"/>
            <stop offset="14.31%" stop-color="#AC6F29"/>
            <stop offset="50%" stop-color="#FDF5AD"/>
            <stop offset="60%" stop-color="#915924"/>
            <stop offset="82%" stop-color="#D99850"/>
            <stop offset="100%" stop-color="#915924"/>
        </linearGradient>
    </defs>
    <g fill="none" fill-rule="evenodd">
        <path fill="url(#a)" fill-rule="nonzero" d="M10.79 13.451v1.484s-8.665.058-10.755-2.933l.161-1.676s.33 1.496 5.175 2.387c0 0 2.497.518 5.42.552v.186zm4.66 1.63l-.005-.056c-.03.002-3.095.274-6.51.06-3.148-.2-7.246-.864-8.892-2.906L0 12.215c1.658 2.057 5.773 2.727 8.932 2.926 1.061.067 2.089.087 3.002.083 2.03-.01 3.495-.14 3.516-.143zm-11.64-.219c-1.663-.43-2.735-.875-3.636-2.005l-.087.072c.92 1.154 2.009 1.608 3.695 2.043l.027-.11zm2.769 1.553c5.343.814 10.465.095 10.465.095v-.831c-7.738.793-11.226-.228-11.226-.228C.919 14.656.196 13.03.196 13.03v.7c1.039 2.06 6.383 2.685 6.383 2.685zm-5.214 1.04c1.484 2.062 8.74 2.44 8.74 2.44 3.432.284 7.886-.397 7.886-.397v-.7c-5.679 1.164-11.412.095-11.412.095-4.787-.776-5.548-2.232-5.548-2.232l.334.795zm5.974 3.726c-3.34-.51-4.62-1.627-4.62-1.627.037.095.631.757.631.757 1.448 1.04 4.843 1.475 4.843 1.475 6.55.7 9.798-.359 9.798-.359v-.433c-5.787 1.153-10.652.187-10.652.187zm1.448 1.684l-.045-.075-.345-.587s-3.173-.398-4.657-1.494c0 0 1.28 1.342 2.523 1.607 0 0 .482.265 2.524.549zM3.999 9.53C.94 8.718.976 7.205.976 7.205l-.26.794c-.094 2.214 6.067 3.026 6.067 3.026 6.252.927 11.208-.095 11.208-.095v-.85C9.032 11.367 4 9.53 4 9.53zm-.741-5.88l-.613.699s-.167 1.173 1.54 1.759c0 0 4.787 2.289 13.806.7v-.832s-3.296.927-8.978.472c0 0-6.609-.719-5.755-2.799zm1.855-1.722l-1.114.946s-.611.688.223 1.4c0 0 2.315 1.741 7.923 1.626V4.652s-4.156 0-6.123-1.002c0 0-1.837-.434-.909-1.72zm4.24 1.854l.472-1.021S6.412 2.289 6.82 1.21c0 0 .168-.34.706-.547 0 0-1.317.479-1.651.812-.184.206-.928.719.408 1.532 0 0 1.595.7 3.07.776zm6.428-1.561l-1.113-.841s-3.135.7-5.455-.17c0 0-1.522-.719.612-1.211 0 0-2.282.274-2.653 1.111 0 0-.408.856 2.431 1.348 0 0 3.229.567 6.178-.237zM5.651 22.24s1.262.718 1.41.756h1.206s-.872.094-2.616-.756zM6.787 1.393c.035.92 3.038 1.369 3.038 1.369 3.384.434 6.105-.334 6.105-.334l-.149-.206C10.13 3.379 7.693 1.88 7.693 1.88c-1.21-.707 0-1.267 0-1.267-1.055.4-.906.78-.906.78zM3.431 6.154c-1.095-.61-.982-1.52-.982-1.52l-.2.363c.062 1.82 4.27 2.579 4.27 2.579l.085-.388C5.098 6.973 3.43 6.154 3.43 6.154zm11.175 2.29l-.001-.058c-.043.002-4.372.14-8.01-.696-.012-.002-1.17-.232-2.283-.681-1.021-.412-2.214-1.095-2.096-2.017l-.055-.008C1.927 6.81 6.394 7.708 6.583 7.746c1.891.434 3.967.606 5.534.67a36.83 36.83 0 0 0 2.49.027zm-9.747.728c-3.958-1.16-3.661-2.47-3.661-2.47l-.111.34C.938 8.995 6.604 9.902 6.604 9.902c4.193.707 10.254.102 10.254.102V9.65c-7.385.942-11.999-.479-11.999-.479zm10.466 2.614l-.002-.057c-.036.002-3.693.128-7.323-.22-2.13-.205-3.835-.531-5.066-.97C1.404 9.995.609 9.275.57 8.402l-.056.003c.072 1.627 2.589 2.69 7.48 3.16 2.096.201 4.2.244 5.612.244 1.038 0 1.702-.023 1.718-.023zM.196 13.788v.3c1.064 1.855 5.085 2.41 5.085 2.41v-.296C1.274 15.555.196 13.788.196 13.788zm3.95 3.803C1.168 16.68.77 15.745.766 15.736l-.103.04c.014.04.404.993 3.45 1.923l.033-.108zM18 18.539l-.017-.112c-.131.021-13.156 2.003-17.116-2.23l-.08.078c2.065 2.208 6.554 2.745 10.43 2.745 3.627 0 6.72-.47 6.783-.48zm-15.893.24c2.728 3.5 14.398 2.215 14.398 2.215v-.204c-12.041.972-14.398-2.01-14.398-2.01z"/>
        <path fill="#121617" d="M7.007 1.684c.034.806 2.988 1.2 2.988 1.2C13.323 3.263 16 2.59 16 2.59l-.147-.181c-5.559 1.015-7.955-.3-7.955-.3-1.19-.619 0-1.11 0-1.11-1.037.35-.89.684-.89.684zM4.83 8.788C.814 7.478 1.114 6 1.114 6l-.112.383c-.151 2.206 5.596 3.23 5.596 3.23 4.253.798 10.401.115 10.401.115v-.399c-7.49 1.063-12.17-.54-12.17-.54zM18 18.49l-.017-.12c-.13.023-12.992 2.129-16.904-2.37L1 16.083C3.04 18.43 7.473 19 11.3 19c3.584 0 6.637-.5 6.7-.51zM6 22s1.447.946 1.617.996H9S8 23.12 6 22zM15 21.973l-.003-.072c-.091.004-9.044.33-10.997-1.901l.022.13c.822.911 3.15 1.523 6.176 1.755 1.203.092 2.359.115 3.235.115.938 0 1.555-.027 1.567-.027z"/>
        <path fill="#121617" d="M0 14v.334C1.045 16.387 5 17 5 17v-.327C1.06 15.956 0 14 0 14z"/>
    </g>
</svg>
