<svg xmlns="http://www.w3.org/2000/svg" width="32" height="32" viewBox="0 0 32 32">
    <g fill="none" fill-rule="evenodd">
        <rect width="32" height="32" fill="#E60022" rx="16"/>
        <path fill="#FFF" d="M11 14.023c0 1.384.483 2.614 1.52 3.073.17.075.322.002.371-.202.034-.14.115-.497.151-.645.05-.202.03-.272-.106-.448-.299-.382-.49-.877-.49-1.577 0-2.032 1.403-3.852 3.653-3.852 1.993 0 3.087 1.32 3.087 3.082 0 2.319-.947 4.276-2.352 4.276-.776 0-1.357-.696-1.17-1.55.222-1.018.654-2.118.654-2.853 0-.658-.326-1.207-1-1.207-.794 0-1.432.89-1.432 2.081 0 .76.237 1.272.237 1.272l-.954 4.383c-.284 1.3-.043 2.895-.022 3.055a.097.097 0 0 0 .176.047c.073-.104 1.018-1.369 1.34-2.632.09-.358.521-2.21.521-2.21.258.533 1.011 1.002 1.812 1.002 2.386 0 4.004-2.357 4.004-5.511C21 11.22 19.136 9 16.303 9 12.778 9 11 11.74 11 14.023z"/>
    </g>
</svg>
