<svg xmlns="http://www.w3.org/2000/svg" width="32" height="32" viewBox="0 0 32 32">
    <g fill="none" fill-rule="evenodd">
        <rect width="32" height="32" fill="#FFFC00" rx="16"/>
        <path fill="#FFF" fill-rule="nonzero" stroke="#000" stroke-width=".6" d="M12.4 11.644c-.35.784-.212 2.189-.155 3.171-.378.21-.864-.158-1.139-.158-.285 0-.627.188-.68.468-.039.202.052.496.7.752.251.1.848.216.986.541.194.458-.997 2.569-2.869 2.877a.29.29 0 0 0-.242.302c.032.57 1.307.792 1.873.88.057.078.104.408.178.66a.325.325 0 0 0 .34.247c.287 0 .765-.222 1.597-.084.815.136 1.582 1.292 3.054 1.292 1.367 0 2.184-1.162 2.969-1.292a3.433 3.433 0 0 1 1.28.033c.301.06.57.092.656-.203.076-.255.122-.579.178-.655.56-.087 1.841-.31 1.873-.878a.29.29 0 0 0-.242-.303c-1.84-.303-3.068-2.408-2.87-2.876.139-.325.731-.44.987-.542.475-.187.713-.417.707-.684-.006-.341-.417-.545-.719-.545-.307 0-.749.364-1.106.167.055-.99.193-2.389-.156-3.172-.662-1.483-2.135-2.234-3.608-2.234-1.463 0-2.924.74-3.592 2.236z"/>
    </g>
</svg>
