<svg xmlns="http://www.w3.org/2000/svg" width="25" height="25" viewBox="0 0 25 25">
    <g fill="none" fill-rule="evenodd" stroke="#000" stroke-linecap="round" stroke-linejoin="round" stroke-width="1.5">
        <circle cx="17.806" cy="17.806" r="6.194"/>
        <path d="M17.806 20.903v-3.097M17.806 14.773a.387.387 0 1 0 0 .774.387.387 0 0 0 0-.774M10.839 23.898a11.614 11.614 0 1 1 13.058-13.06"/>
        <path d="M9.589 23.66c-1.57-2.304-2.621-6.49-2.621-11.273 0-4.782 1.05-8.968 2.62-11.273M.8 11.613h10.039M3.096 5.42h18.581M2.114 17.806h5.333M15.186 1.114a17.574 17.574 0 0 1 2.383 7.407"/>
    </g>
</svg>
