<svg xmlns="http://www.w3.org/2000/svg" width="32" height="32" viewBox="0 0 32 32">
    <g fill="none" fill-rule="evenodd" stroke="#000" stroke-linecap="round" stroke-linejoin="round" stroke-width="1.5">
        <circle cx="23" cy="23" r="8"/>
        <path d="M23 27v-4M23 19.081a.5.5 0 1 0 0 1 .5.5 0 0 0 0-1"/>
        <path d="M14 30.868C6.302 29.833.667 23.092 1.013 15.333 1.359 7.573 7.57 1.36 15.33 1.014 23.09.668 29.83 6.302 30.867 14"/>
        <path d="M12.385 30.561C10.357 27.585 9 22.177 9 16s1.357-11.584 3.385-14.561M1.033 15H14M3.999 7H28M2.73 23H9.62M19.615 1.439a22.7 22.7 0 0 1 3.078 9.568"/>
    </g>
</svg>
