<svg xmlns="http://www.w3.org/2000/svg" width="15" height="16" viewBox="0 0 15 16">
    <g fill="#D0021B" fill-rule="nonzero" transform="translate(0 .5)">
        <circle cx="5.46" cy="6.339" r="1"/>
        <circle cx="9.54" cy="8.975" r="1"/>
        <path d="M14.807 8.537l-.232-.318a1.007 1.007 0 0 1-.01-1.169l.227-.321a1.005 1.005 0 0 0-.345-1.462L14.1 5.08a1 1 0 0 1-.51-1.05l.065-.387a1 1 0 0 0-.941-1.166l-.392-.015a1 1 0 0 1-.916-.722l-.11-.378a.993.993 0 0 0-1.352-.64l-.36.155A.991.991 0 0 1 8.448.626l-.26-.293a.991.991 0 0 0-1.494.012l-.257.297a.994.994 0 0 1-1.132.267L4.942.76a.998.998 0 0 0-1.343.66l-.103.382a.992.992 0 0 1-.904.734l-.392.022a1 1 0 0 0-.922 1.182l.072.387a1 1 0 0 1-.495 1.056l-.342.192c-.524.293-.675.98-.32 1.465l.232.318c.25.347.257.816.01 1.17l-.227.32a1.005 1.005 0 0 0 .345 1.463l.346.186a1 1 0 0 1 .51 1.049l-.065.387a1 1 0 0 0 .941 1.166l.392.016a1 1 0 0 1 .916.721l.11.378c.166.58.8.88 1.352.64l.36-.154a.991.991 0 0 1 1.136.252l.26.293a.991.991 0 0 0 1.494-.013l.257-.296a.994.994 0 0 1 1.132-.268l.364.151a.998.998 0 0 0 1.343-.661l.103-.382a.992.992 0 0 1 .904-.734l.392-.022a1 1 0 0 0 .922-1.181l-.072-.388a1 1 0 0 1 .495-1.055l.342-.192c.524-.29.675-.977.32-1.466zM3.92 6.382c0-.857.69-1.55 1.544-1.55.853 0 1.543.693 1.543 1.55 0 .857-.69 1.55-1.543 1.55a1.548 1.548 0 0 1-1.544-1.55zm1.842 3.999a.376.376 0 1 1-.58-.482l4.049-4.9a.376.376 0 1 1 .58.482l-4.05 4.9zm3.77.16a1.546 1.546 0 0 1-1.543-1.55c0-.857.69-1.55 1.543-1.55s1.543.693 1.543 1.55c0 .857-.69 1.55-1.543 1.55z"/>
    </g>
</svg>
