<svg xmlns="http://www.w3.org/2000/svg" width="20" height="20" viewBox="0 0 20 20">
    <g fill="#FF562A" fill-rule="nonzero">
        <path d="M10 0C4.486 0 0 4.486 0 10s4.486 10 10 10 10-4.486 10-10S15.514 0 10 0zm0 19.23C4.91 19.23.77 15.09.77 10 .77 4.91 4.91.77 10 .77c5.09 0 9.23 4.14 9.23 9.23 0 5.09-4.14 9.23-9.23 9.23z"/>
        <path d="M10.244 3.902c-.27 0-.488.173-.488.387v8.496c0 .213.219.386.488.386.27 0 .488-.173.488-.386V4.289c0-.214-.219-.387-.488-.387zM10.244 14.146c-.27 0-.488.164-.488.366v.732c0 .202.219.366.488.366.27 0 .488-.164.488-.366v-.732c0-.202-.219-.366-.488-.366z"/>
    </g>
</svg>
