<svg xmlns="http://www.w3.org/2000/svg" width="79" height="79" viewBox="0 0 79 79">
    <g fill="#F46924" fill-rule="nonzero">
        <path d="M39.5 0C17.72 0 0 17.719 0 39.5S17.72 79 39.5 79 79 61.281 79 39.5 61.28 0 39.5 0zm0 75.962c-20.104 0-36.462-16.358-36.462-36.462 0-20.104 16.358-36.462 36.462-36.462 20.104 0 36.462 16.358 36.462 36.462 0 20.104-16.358 36.462-36.462 36.462z"/>
        <path d="M40 15c-1.104 0-2 .69-2 1.542v33.916c0 .853.896 1.542 2 1.542s2-.69 2-1.542V16.542c0-.853-.896-1.542-2-1.542zM40 55c-1.104 0-2 .67-2 1.5v3c0 .83.896 1.5 2 1.5s2-.67 2-1.5v-3c0-.83-.896-1.5-2-1.5z"/>
    </g>
</svg>
