<svg xmlns="http://www.w3.org/2000/svg" width="16" height="20" viewBox="0 0 16 20">
    <g fill="none" fill-rule="nonzero">
        <path fill="#35393D" d="M7.97 9.781c2.315 0 4.191-2.19 4.191-4.89C12.161 2.19 11.545 0 7.971 0 4.394 0 3.778 2.19 3.778 4.89c0 2.702 1.877 4.891 4.191 4.891z"/>
        <path fill="#000" d="M.055 17.264c-.002-.194-.003-.055 0 0zM15.886 17.383c.004-.046.001-.325 0 0z"/>
        <path fill="#35393D" d="M15.877 17.051c-.077-4.705-.717-6.046-5.612-6.894 0 0-.689.843-2.295.843-1.606 0-2.295-.843-2.295-.843-4.841.839-5.52 2.16-5.609 6.741-.007.375-.01.394-.012.35v.495S1.22 20 7.97 20s7.916-2.257 7.916-2.257v-.366c-.001.027-.004-.025-.009-.326z"/>
    </g>
</svg>
