<?xml version="1.0" encoding="UTF-8" standalone="no"?>
<svg width="22px" height="22px" viewBox="0 0 22 22" version="1.1" xmlns="http://www.w3.org/2000/svg" xmlns:xlink="http://www.w3.org/1999/xlink">
    <!-- Generator: Sketch 43.2 (39069) - http://www.bohemiancoding.com/sketch -->
    <title>Group 3</title>
    <desc>Created with Sketch.</desc>
    <defs></defs>
    <g id="Page-1" stroke="none" stroke-width="1" fill="none" fill-rule="evenodd">
        <g id="Mdns-M-02-3" transform="translate(-18.000000, -445.000000)">
            <g id="Group-3" transform="translate(29.000000, 456.000000) rotate(-315.000000) translate(-29.000000, -456.000000) translate(23.000000, 447.000000)">
                <path d="M3.35818101,17.5 L0.5,17.5 L0.5,0.5 L3.35818101,0.5 C3.75150422,1.61553231 4.79575323,2.39473684 6,2.39473684 C7.20424677,2.39473684 8.24849578,1.61553231 8.64181899,0.5 L11.5,0.5 L11.5,17.5 L8.64181899,17.5 C8.24849578,16.3844677 7.20424677,15.6052632 6,15.6052632 C4.79575323,15.6052632 3.75150422,16.3844677 3.35818101,17.5 Z" id="Combined-Shape" stroke="#28323E"></path>
                <path d="M0,7 L3,7 L3,6 L0,6 L0,7 Z M4,7 L7,7 L7,6 L4,6 L4,7 Z M8,7 L11,7 L11,6 L8,6 L8,7 Z" id="Line" fill="#28323E" fill-rule="nonzero"></path>
            </g>
        </g>
    </g>
</svg>