<?xml version="1.0" encoding="UTF-8" standalone="no"?>
<svg width="18px" height="17px" viewBox="0 0 18 17" version="1.1" xmlns="http://www.w3.org/2000/svg" xmlns:xlink="http://www.w3.org/1999/xlink">
    <!-- Generator: Sketch 43.2 (39069) - http://www.bohemiancoding.com/sketch -->
    <title>Group 4</title>
    <desc>Created with Sketch.</desc>
    <defs></defs>
    <g id="Page-1" stroke="none" stroke-width="1" fill="none" fill-rule="evenodd">
        <g id="Mdns-M-02-3" transform="translate(-20.000000, -196.000000)" stroke="#2B3541">
            <g id="Group-4" transform="translate(20.000000, 197.000000)">
                <path d="M2.99973517,6.06261214 C3.21181707,5.21428454 4.13007903,4.5 5.0085302,4.5 L12.9914698,4.5 C13.8739959,4.5 14.7869746,5.20945126 15.0002648,6.06261214 L17.0295927,14.1799235 C17.2189168,14.9372202 16.7813737,15.5 16.0049107,15.5 L1.99508929,15.5 C1.21645436,15.5 0.780218033,14.9406807 0.970407332,14.1799235 L2.99973517,6.06261214 L2.99973517,6.06261214 Z" id="Rectangle-15"></path>
                <path d="M6,6 L6,3 L6,3 C6,1.34314575 7.17110386,0 8.63168737,0 L9.36831263,0 C10.8217534,0 12,1.34651712 12,3 L12,6" id="Rectangle-16"></path>
            </g>
        </g>
    </g>
</svg>