<?xml version="1.0" encoding="UTF-8" standalone="no"?>
<svg width="16px" height="16px" viewBox="0 0 16 16" version="1.1" xmlns="http://www.w3.org/2000/svg" xmlns:xlink="http://www.w3.org/1999/xlink">
    <!-- Generator: Sketch 43.2 (39069) - http://www.bohemiancoding.com/sketch -->
    <title>Fill 3</title>
    <desc>Created with Sketch.</desc>
    <defs></defs>
    <g id="Page-1" stroke="none" stroke-width="1" fill="none" fill-rule="evenodd">
        <g id="Mdns-M-02-3" transform="translate(-20.000000, -597.000000)" stroke="#28323E">
            <path d="M34.1764706,607.058824 L30.8823529,607.058824 C30.4269412,607.058824 30.0588235,607.426942 30.0588235,607.882353 L30.0588235,608.705882 C26.7647059,608.705882 24.3451765,606.183412 24.2941176,602.941176 L25.1176471,602.941176 C25.5730588,602.941176 25.9411765,602.573059 25.9411765,602.117647 L25.9411765,598.823529 C25.9411765,598.368118 25.5730588,598 25.1176471,598 L21.8235294,598 C21.3681176,598 21,598.368118 21,598.823529 L21,602.941176 C21,607.944118 25.0558824,612 30.0588235,612 L34.1764706,612 C34.6318824,612 35,611.631882 35,611.176471 L35,607.882353 C35,607.426942 34.6318824,607.058824 34.1764706,607.058824 Z" id="Fill-3" transform="translate(28.000000, 605.000000) rotate(-360.000000) translate(-28.000000, -605.000000) "></path>
        </g>
    </g>
</svg>