<?xml version="1.0" encoding="UTF-8" standalone="no"?>
<svg width="18px" height="19px" viewBox="0 0 18 19" version="1.1" xmlns="http://www.w3.org/2000/svg" xmlns:xlink="http://www.w3.org/1999/xlink">
    <!-- Generator: Sketch 43.2 (39069) - http://www.bohemiancoding.com/sketch -->
    <title>Group</title>
    <desc>Created with Sketch.</desc>
    <defs></defs>
    <g id="Page-1" stroke="none" stroke-width="1" fill="none" fill-rule="evenodd">
        <g id="Mdns-M-02-3" transform="translate(-20.000000, -346.000000)" stroke="#2B3541">
            <g id="Group" transform="translate(20.000000, 346.000000)">
                <path d="M9,7.5 C6.32654475,7.5 4.9623316,7.2884787 4.59218973,6.94704241 C4.46483339,6.82956292 4.50690944,6.67033173 4.96146391,5.77582831 C5.33177907,5.04709678 5.5,4.56709473 5.5,4 C5.5,2.06700338 7.06700338,0.5 9,0.5 C10.9329966,0.5 12.5,2.06700338 12.5,4 C12.5,4.56709473 12.6682209,5.04709678 13.0385361,5.77582831 C13.4930906,6.67033173 13.5351666,6.82956292 13.4078103,6.94704241 C13.0376684,7.2884787 11.6734552,7.5 9,7.5 Z" id="Oval-2"></path>
                <path d="M9,18.0555556 C6.64307897,18.0555556 4.13652207,17.7610286 2.54233999,17.2565759 C1.71181361,16.9937695 1.16840456,16.6859037 0.974588771,16.3940606 C0.828680203,16.1743551 0.894744076,15.9231011 1.34030761,15.5091777 C1.95587468,14.9373229 2.43207522,14.3686869 3.24738746,13.2937197 C3.35063097,13.1574807 3.35063097,13.1574807 3.45325408,13.022017 C5.45671369,10.3792478 6.62930528,9.5 9,9.5 C11.374329,9.5 12.6083197,10.3655389 14.4385289,12.7795429 C14.4657597,12.8154597 15.0759925,13.6279425 15.2614897,13.8692054 C15.7641105,14.5229284 16.1859307,15.0245816 16.6421633,15.4920747 C17.1189876,15.9806677 17.1989254,16.2903493 17.04578,16.5310204 C16.8579904,16.8261355 16.3228013,17.1236697 15.4905089,17.3679883 C13.9458937,17.8214084 11.5186222,18.0555556 9,18.0555556 Z" id="Oval-2-Copy"></path>
            </g>
        </g>
    </g>
</svg>