<?xml version="1.0" encoding="UTF-8" standalone="no"?>
<svg width="40px" height="40px" viewBox="0 0 40 40" version="1.1" xmlns="http://www.w3.org/2000/svg" xmlns:xlink="http://www.w3.org/1999/xlink">
    <!-- Generator: Sketch 43.2 (39069) - http://www.bohemiancoding.com/sketch -->
    <title>Shape</title>
    <desc>Created with Sketch.</desc>
    <defs></defs>
    <g id="Symbols" stroke="none" stroke-width="1" fill="none" fill-rule="evenodd">
        <g id="Footer" transform="translate(-140.000000, -977.000000)" fill="#FF562A">
            <g transform="translate(0.000000, 261.000000)" id="Shape">
                <polygon points="180 735.996097 176.452328 731.518049 170.953437 731.518049 174.767184 727.654634 174.146341 722.035122 168.470067 721.332683 164.478936 725.196097 164.478936 719.752195 159.955654 716.24 155.432373 719.66439 155.432373 725.196097 151.529933 721.332683 145.853659 722.035122 145.144124 727.654634 149.046563 731.518049 143.547672 731.518049 140 735.996097 143.45898 740.474146 149.046563 740.474146 145.144124 744.337561 145.853659 749.957073 151.529933 750.747317 155.432373 746.796097 155.432373 752.24 159.955654 755.752195 164.478936 752.327805 164.478936 746.796097 168.381375 750.659512 174.146341 749.957073 174.855876 744.337561 170.953437 740.474146 176.452328 740.474146"></polygon>
            </g>
        </g>
    </g>
</svg>