<?xml version="1.0" encoding="UTF-8"?>
<svg width="16px" height="16px" viewBox="0 0 16 16" version="1.1" xmlns="http://www.w3.org/2000/svg" xmlns:xlink="http://www.w3.org/1999/xlink">
    <!-- Generator: Sketch 52.3 (67297) - http://www.bohemiancoding.com/sketch -->
    <title>Group</title>
    <desc>Created with Sketch.</desc>
    <g id="Exploration" stroke="none" stroke-width="1" fill="none" fill-rule="evenodd" stroke-linecap="round" stroke-linejoin="round">
        <g id="Checkout---Registered-Card-Copy-20" transform="translate(-1020.000000, -334.000000)" stroke="#000000">
            <g id="Group-17" transform="translate(1004.000000, 47.000000)">
                <g id="Group" transform="translate(16.000000, 287.000000)">
                    <g id="headphones-customer-support-human">
                        <path d="M3,12 L2.5,12 C1.3954305,12 0.5,11.1045695 0.5,10 L0.5,8 C0.5,6.8954305 1.3954305,6 2.5,6 L3,6 C3.27614237,6 3.5,6.22385763 3.5,6.5 L3.5,11.5 C3.5,11.7761424 3.27614237,12 3,12 Z" id="Shape"></path>
                        <path d="M13.5,12 L13,12 C12.7238576,12 12.5,11.7761424 12.5,11.5 L12.5,6.5 C12.5,6.22385763 12.7238576,6 13,6 L13.5,6 C14.6045695,6 15.5,6.8954305 15.5,8 L15.5,10 C15.5,11.1045695 14.6045695,12 13.5,12 Z" id="Shape"></path>
                        <path d="M2.5,6 C2.5,2.96243388 4.96243388,0.5 8,0.5 C9.45869069,0.5 10.8576372,1.07946262 11.8890873,2.1109127 C12.9205374,3.14236278 13.5,4.54130931 13.5,6" id="Shape"></path>
                        <path d="M10,14.5 L11.5,14.5 C12.6045695,14.5 13.5,13.6045695 13.5,12.5 L13.5,12" id="Shape"></path>
                        <path d="M9,15.5 L8,15.5 C7.44771525,15.5 7,15.0522847 7,14.5 C7,13.9477153 7.44771525,13.5 8,13.5 L9,13.5 C9.55228475,13.5 10,13.9477153 10,14.5 C10,15.0522847 9.55228475,15.5 9,15.5 Z" id="Shape"></path>
                        <path d="M6,10.2946667 C7.13334174,11.3274405 8.86665826,11.3274405 10,10.2946667" id="Shape" transform="translate(8.000000, 10.681957) scale(-1, 1) translate(-8.000000, -10.681957) "></path>
                        <path d="M6,6.65666667 L6,7.53133333" id="Shape"></path>
                        <path d="M10,6.65666667 L10,7.53133333" id="Shape"></path>
                    </g>
                </g>
            </g>
        </g>
    </g>
</svg>