<svg xmlns="http://www.w3.org/2000/svg" width="86" height="25" viewBox="0 0 86 25">
    <g fill="none" fill-rule="evenodd">
        <path fill="#A6A6A6" d="M82.705 25H3.004C1.348 25 0 23.67 0 22.042V2.954C0 1.325 1.348 0 3.004 0h79.7c1.656 0 3.052 1.325 3.052 2.954v19.088c0 1.628-1.396 2.958-3.051 2.958z"/>
        <path fill="#000" d="M85.14 22.043c0 1.322-1.088 2.393-2.435 2.393H3.004c-1.346 0-2.439-1.071-2.439-2.393V2.953C.565 1.631 1.658.556 3.004.556h79.7c1.348 0 2.436 1.075 2.436 2.397v19.09z"/>
        <g fill="#FFF">
            <path d="M19.138 12.365c-.018-2.014 1.676-2.994 1.754-3.04-.96-1.377-2.448-1.565-2.97-1.58-1.25-.13-2.462.736-3.098.736-.65 0-1.63-.723-2.686-.702-1.36.02-2.631.795-3.329 1.997-1.44 2.452-.366 6.055 1.014 8.037.69.97 1.495 2.055 2.55 2.016 1.033-.041 1.418-.647 2.664-.647 1.234 0 1.596.647 2.673.623 1.107-.017 1.805-.975 2.47-1.954.798-1.113 1.118-2.208 1.13-2.265-.025-.008-2.15-.807-2.172-3.221zM17.105 6.441c.556-.683.935-1.612.83-2.555-.804.035-1.808.546-2.387 1.215-.512.588-.97 1.553-.851 2.46.902.067 1.83-.447 2.408-1.12z"/>
        </g>
        <g fill="#FFF">
            <path fill-rule="nonzero" d="M34.077 19.69h-1.443l-.79-2.443h-2.747l-.753 2.443H26.94l2.721-8.318h1.681l2.735 8.318zm-2.471-3.468l-.715-2.172c-.075-.222-.217-.744-.426-1.567h-.026a59.67 59.67 0 0 1-.401 1.567l-.702 2.172h2.27zM41.075 16.617c0 1.02-.28 1.827-.84 2.419-.502.526-1.125.79-1.87.79-.802 0-1.379-.284-1.73-.852h-.026v3.16h-1.354v-6.467c0-.641-.017-1.3-.05-1.974h1.191l.076.95h.025c.452-.716 1.137-1.074 2.057-1.074.719 0 1.32.28 1.8.84.48.56.721 1.295.721 2.209zm-1.38.05c0-.585-.133-1.066-.401-1.445a1.394 1.394 0 0 0-1.18-.592c-.333 0-.637.11-.908.327-.272.219-.45.504-.533.858-.042.165-.063.3-.063.406v1c0 .437.136.805.408 1.105.272.3.625.45 1.06.45.51 0 .907-.193 1.19-.58.285-.386.427-.896.427-1.53zM48.086 16.617c0 1.02-.28 1.827-.841 2.419-.501.526-1.124.79-1.868.79-.803 0-1.38-.284-1.73-.852h-.026v3.16h-1.354v-6.467c0-.641-.017-1.3-.05-1.974h1.19l.076.95h.026c.45-.716 1.136-1.074 2.056-1.074.719 0 1.32.28 1.8.84.48.56.721 1.295.721 2.209zm-1.38.05c0-.585-.134-1.066-.402-1.445a1.392 1.392 0 0 0-1.178-.592c-.335 0-.638.11-.91.327-.272.219-.449.504-.532.858-.041.165-.063.3-.063.406v1c0 .437.136.805.407 1.105.271.3.625.45 1.06.45.51 0 .908-.193 1.191-.58.285-.386.427-.896.427-1.53z"/>
            <path d="M55.925 17.358c0 .707-.25 1.283-.751 1.727-.55.486-1.318.728-2.303.728-.91 0-1.639-.172-2.19-.518l.313-1.11a3.758 3.758 0 0 0 1.958.53c.51 0 .907-.113 1.192-.34.284-.226.426-.53.426-.908 0-.338-.117-.622-.351-.853-.234-.23-.623-.445-1.167-.643-1.48-.543-2.22-1.338-2.22-2.385 0-.683.26-1.244.779-1.68.517-.437 1.207-.655 2.07-.655.769 0 1.408.132 1.918.395l-.339 1.086c-.476-.255-1.015-.383-1.618-.383-.476 0-.848.116-1.115.346a.98.98 0 0 0-.339.753c0 .329.13.6.388.815.226.197.636.41 1.23.641.728.289 1.262.625 1.606 1.012.342.385.513.867.513 1.442zM60.402 14.692H58.91v2.912c0 .741.263 1.111.79 1.111.242 0 .443-.02.601-.062l.038 1.012c-.267.098-.618.147-1.053.147-.535 0-.953-.16-1.255-.48-.3-.322-.451-.86-.451-1.618v-3.023h-.89v-1h.89v-1.098l1.33-.395v1.493h1.492v1.001z"/>
            <path fill-rule="nonzero" d="M67.138 16.642c0 .922-.268 1.679-.803 2.27-.561.61-1.306.914-2.234.914-.894 0-1.606-.292-2.137-.876-.531-.584-.797-1.32-.797-2.209 0-.93.273-1.69.822-2.282.547-.593 1.285-.889 2.213-.889.894 0 1.614.292 2.157.876.52.567.779 1.299.779 2.196zm-1.405.043c0-.553-.12-1.027-.364-1.423-.284-.479-.69-.718-1.215-.718-.545 0-.958.24-1.242.718-.244.396-.364.878-.364 1.448 0 .553.12 1.027.364 1.423.292.478.702.717 1.23.717.517 0 .922-.244 1.215-.73.25-.403.376-.883.376-1.435z"/>
            <path d="M71.54 14.864a2.389 2.389 0 0 0-.427-.037c-.476 0-.845.177-1.104.532-.225.312-.339.707-.339 1.184v3.147h-1.353l.012-4.109c0-.691-.017-1.32-.05-1.888h1.18l.049 1.148h.037c.143-.395.369-.712.677-.95.302-.215.628-.322.98-.322.124 0 .238.01.338.025v1.27z"/>
            <path fill-rule="nonzero" d="M77.597 16.407c0 .24-.016.44-.05.605h-4.063c.016.592.213 1.045.59 1.358.342.28.785.42 1.329.42a4.56 4.56 0 0 0 1.644-.284l.212.925c-.577.247-1.258.37-2.044.37-.945 0-1.687-.273-2.227-.82-.538-.547-.808-1.282-.808-2.203 0-.904.25-1.657.753-2.258.526-.641 1.237-.962 2.131-.962.879 0 1.544.32 1.995.962.358.51.538 1.14.538 1.887zm-1.292-.345c.01-.395-.079-.736-.263-1.025-.234-.37-.594-.555-1.079-.555-.443 0-.803.18-1.078.543a1.97 1.97 0 0 0-.4 1.036h2.82z"/>
        </g>
        <g fill="#FFF">
            <path fill-rule="nonzero" d="M31.158 6.256c0 .735-.224 1.289-.672 1.66-.415.344-1.004.516-1.768.516a8.33 8.33 0 0 1-.974-.049v-4.02a7.301 7.301 0 0 1 1.147-.084c.727 0 1.275.155 1.645.467.414.351.622.855.622 1.51zm-.702.018c0-.477-.128-.843-.385-1.098-.257-.254-.631-.382-1.125-.382-.21 0-.388.014-.536.043v3.055c.082.013.232.019.45.019.51 0 .902-.14 1.18-.419.276-.278.416-.685.416-1.218zM34.88 6.898c0 .453-.132.825-.395 1.116-.275.3-.64.449-1.097.449-.44 0-.79-.144-1.05-.431-.26-.287-.391-.649-.391-1.085 0-.456.134-.83.403-1.121.27-.291.632-.437 1.088-.437.44 0 .792.143 1.06.43.254.28.382.64.382 1.08zm-.69.021c0-.271-.06-.505-.18-.699-.139-.235-.338-.352-.596-.352a.67.67 0 0 0-.61.352c-.12.194-.18.431-.18.711 0 .272.06.505.18.7.143.235.344.352.603.352.254 0 .454-.12.597-.359.124-.198.185-.433.185-.705z"/>
            <path d="M39.87 5.45l-.937 2.946h-.61l-.388-1.28a9.448 9.448 0 0 1-.24-.952h-.013c-.057.324-.138.641-.24.952l-.413 1.28h-.617l-.88-2.947h.684l.338 1.401c.082.331.15.647.203.946h.012c.05-.247.132-.56.248-.94l.425-1.406h.542l.407 1.376c.099.336.179.659.24.97h.019c.045-.303.113-.626.203-.97l.363-1.376h.654zM43.321 8.396h-.665V6.708c0-.52-.201-.78-.604-.78a.605.605 0 0 0-.48.214.753.753 0 0 0-.186.505v1.748h-.665V6.291c0-.259-.009-.54-.025-.843h.586l.03.46h.02a.953.953 0 0 1 .344-.355c.18-.11.382-.166.603-.166.28 0 .512.09.697.267.23.218.345.544.345.977v1.765zM45.157 8.396h-.665V4.097h.665z"/>
            <path fill-rule="nonzero" d="M49.076 6.898c0 .453-.131.825-.394 1.116-.276.3-.642.449-1.097.449-.44 0-.79-.144-1.05-.431-.261-.287-.391-.649-.391-1.085 0-.456.134-.83.403-1.121.27-.291.631-.437 1.087-.437.44 0 .793.143 1.06.43.255.28.382.64.382 1.08zm-.69.021c0-.271-.06-.505-.18-.699-.138-.235-.338-.352-.596-.352a.668.668 0 0 0-.61.352c-.12.194-.179.431-.179.711 0 .272.06.505.179.7.144.235.345.352.604.352.254 0 .453-.12.596-.359.124-.198.185-.433.185-.705zM52.298 8.396h-.597l-.05-.34h-.018c-.205.27-.497.406-.875.406-.283 0-.512-.089-.684-.266a.83.83 0 0 1-.234-.6c0-.36.152-.635.46-.825.305-.19.736-.283 1.29-.279v-.055c0-.388-.206-.581-.621-.581a1.41 1.41 0 0 0-.781.218l-.135-.43c.278-.17.622-.255 1.027-.255.782 0 1.175.407 1.175 1.22v1.084c0 .295.015.529.043.703zm-.69-1.013V6.93c-.735-.013-1.102.185-1.102.593 0 .154.042.27.127.346a.47.47 0 0 0 .326.115.68.68 0 0 0 .407-.136.557.557 0 0 0 .241-.464zM56.081 8.396h-.59l-.032-.474h-.018c-.189.36-.51.54-.962.54-.36 0-.661-.139-.9-.418-.238-.278-.356-.64-.356-1.085 0-.477.128-.863.388-1.158.25-.275.558-.412.924-.412.402 0 .683.133.843.4h.013V4.098h.667v3.504c0 .287.007.551.023.794zm-.69-1.243v-.491a.744.744 0 0 0-.26-.603.66.66 0 0 0-.444-.16.687.687 0 0 0-.586.29c-.142.195-.213.443-.213.746 0 .291.068.528.204.71.144.193.339.29.582.29.219 0 .393-.08.526-.242a.8.8 0 0 0 .191-.54zM61.775 6.898c0 .453-.132.825-.395 1.116-.276.3-.64.449-1.097.449-.439 0-.789-.144-1.05-.431-.261-.287-.391-.649-.391-1.085 0-.456.134-.83.403-1.121.27-.291.632-.437 1.088-.437.44 0 .793.143 1.06.43.254.28.382.64.382 1.08zm-.69.021c0-.271-.06-.505-.179-.699-.14-.235-.338-.352-.598-.352a.671.671 0 0 0-.61.352c-.12.194-.178.431-.178.711 0 .272.06.505.178.7.144.235.345.352.604.352.254 0 .454-.12.598-.359.122-.198.185-.433.185-.705z"/>
            <path d="M65.354 8.396h-.665V6.708c0-.52-.2-.78-.604-.78a.603.603 0 0 0-.48.214.75.75 0 0 0-.185.505v1.748h-.667V6.291c0-.259-.007-.54-.023-.843h.584l.031.46h.019a.963.963 0 0 1 .345-.355c.18-.11.382-.166.604-.166.279 0 .511.09.696.267.23.218.345.544.345.977v1.765zM69.834 5.94h-.733v1.431c0 .364.13.546.388.546.12 0 .219-.01.297-.03l.017.496a1.518 1.518 0 0 1-.517.073c-.263 0-.467-.078-.615-.236-.149-.157-.223-.422-.223-.794V5.94h-.437v-.49h.437v-.54l.653-.194v.733h.733v.491zM73.359 8.396h-.667V6.72c0-.529-.2-.793-.603-.793-.308 0-.52.153-.635.46a.81.81 0 0 0-.031.235v1.772h-.665V4.098h.665v1.775h.013c.21-.323.51-.484.9-.484.275 0 .503.088.684.267.226.222.339.552.339.988v1.752z"/>
            <path fill-rule="nonzero" d="M76.994 6.783c0 .118-.009.216-.025.297h-1.996c.009.291.104.513.289.667.169.137.387.206.653.206.296 0 .565-.046.808-.14l.104.456a2.543 2.543 0 0 1-1.005.182c-.464 0-.829-.135-1.093-.403-.266-.27-.397-.63-.397-1.082 0-.445.122-.815.37-1.11.257-.315.606-.472 1.046-.472.431 0 .758.157.98.472.178.25.266.56.266.927zm-.635-.17a.87.87 0 0 0-.13-.502c-.115-.182-.29-.274-.529-.274a.635.635 0 0 0-.53.267.982.982 0 0 0-.197.51h1.386z"/>
        </g>
    </g>
</svg>
