<svg xmlns="http://www.w3.org/2000/svg" width="24" height="25" viewBox="0 0 24 25">
    <g fill="none" fill-rule="evenodd" stroke="#000" stroke-linecap="round" stroke-linejoin="round" stroke-width="1.25">
        <path d="M16.627 23.628H7.373a1.1 1.1 0 0 1-1.069-.831l-1.653-5.968c-.081-.329-.006-.677.203-.943.209-.266.528-.42.866-.419h12.56c.337-.002.657.152.866.418.21.267.284.615.203.944l-1.653 5.968a1.1 1.1 0 0 1-1.07.83zM6.937 15.467L8.31 12.5M17.063 15.467L15.69 12.5M11.573 1.637a.477.477 0 0 1 .854 0l.993 2.02c.07.14.203.238.358.26l2.227.325a.472.472 0 0 1 .265.805L14.658 6.63a.472.472 0 0 0-.136.416l.38 2.23a.47.47 0 0 1-.19.462.477.477 0 0 1-.5.035l-1.99-1.048a.48.48 0 0 0-.445 0L9.793 9.773a.477.477 0 0 1-.692-.497l.381-2.23a.47.47 0 0 0-.135-.416L7.73 5.047a.47.47 0 0 1 .264-.805l2.227-.325a.477.477 0 0 0 .359-.26l.993-2.02zM6.41 10.658l-.849-.449a.48.48 0 0 0-.446 0l-1.984 1.048a.477.477 0 0 1-.501-.035.47.47 0 0 1-.19-.462l.38-2.23a.474.474 0 0 0-.134-.417L1.068 6.531a.473.473 0 0 1 .265-.805L3.56 5.4a.477.477 0 0 0 .358-.26l.994-2.02a.476.476 0 0 1 .428-.265M17.59 10.658l.849-.449a.48.48 0 0 1 .446 0l1.983 1.048a.48.48 0 0 0 .502-.035.47.47 0 0 0 .19-.462l-.38-2.23a.471.471 0 0 1 .134-.417l1.618-1.582a.472.472 0 0 0-.264-.806l-2.228-.324a.477.477 0 0 1-.358-.26l-.995-2.02a.475.475 0 0 0-.427-.265M9.785 18.064v2.967M14.215 18.064v2.967"/>
    </g>
</svg>
