<svg xmlns="http://www.w3.org/2000/svg" width="24" height="25" viewBox="0 0 24 25">
    <g fill="none" fill-rule="evenodd" stroke="#F46924" stroke-linecap="round" stroke-linejoin="round" stroke-width="1.25">
        <path d="M8.309 19.177H2.402a1.48 1.48 0 0 1-1.476-1.484V7.307c0-.82.66-1.484 1.476-1.484h14.766a1.48 1.48 0 0 1 1.477 1.484v1.484"/>
        <path d="M18.168 6.216l-2.777-4.183a1.475 1.475 0 0 0-1.225-.66H5.405c-.494 0-.955.247-1.229.66L1.402 6.216M9.785 1.372v4.451M14.953 19.177h-3.691v3.709"/>
        <path d="M22.5 19.902a5.485 5.485 0 0 1-5.563 3.714 5.494 5.494 0 0 1-5.009-4.44M19.383 16.21h3.691V12.5"/>
        <path d="M11.836 15.484a5.485 5.485 0 0 1 5.563-3.714 5.494 5.494 0 0 1 5.009 4.44"/>
    </g>
</svg>
