<svg xmlns="http://www.w3.org/2000/svg" width="24" height="25" viewBox="0 0 24 25">
    <g fill="none" fill-rule="evenodd" stroke="#000" stroke-linecap="round" stroke-linejoin="round" stroke-width="1.25" transform="translate(.188 .63)">
        <path d="M15.504 8.16v-.742a1.48 1.48 0 0 0-1.477-1.483H2.215A1.48 1.48 0 0 0 .738 7.418v14.003a1.563 1.563 0 0 0 1.477 1.576h8.12"/>
        <rect width="8.859" height="8.902" x="14.027" y="14.002" rx=".738"/>
        <path d="M11.074 9.644V3.709A2.97 2.97 0 0 0 8.121.742a2.97 2.97 0 0 0-2.953 2.967v5.935M18.457 14.002v8.902M14.027 18.453h8.86M16.242 11.035l2.215 2.967M20.672 11.035l-2.215 2.967"/>
    </g>
</svg>
