<svg xmlns="http://www.w3.org/2000/svg" width="24" height="25" viewBox="0 0 24 25">
    <g fill="none" fill-rule="evenodd" stroke="#F46924" stroke-linecap="round" stroke-linejoin="round" stroke-width="1.25">
        <path d="M8.282 20.314l-4.403 3.314v-4.451H2.402a1.48 1.48 0 0 1-1.476-1.484V2.856c0-.82.66-1.484 1.476-1.484h19.196a1.48 1.48 0 0 1 1.476 1.484v8.902"/>
        <path d="M17.855 12.183l1.517 3.284h2.953a.723.723 0 0 1 .7.455.73.73 0 0 1-.19.814l-2.56 2.535 1.42 3.278a.78.78 0 0 1-.204.882.77.77 0 0 1-.897.089l-3.432-1.94-3.432 1.94a.77.77 0 0 1-.898-.089.78.78 0 0 1-.204-.882l1.42-3.278-2.559-2.535a.728.728 0 0 1-.192-.81.722.722 0 0 1 .692-.459h2.953l1.52-3.286a.787.787 0 0 1 1.393.002z"/>
    </g>
</svg>
