<svg xmlns="http://www.w3.org/2000/svg" width="27" height="27" viewBox="0 0 27 27">
    <g fill="none" fill-rule="evenodd" stroke="#000" stroke-linecap="round" stroke-linejoin="round" stroke-width="1.25" transform="translate(.813 .783)">
        <path d="M7.636 23.74H6.75c-.932 0-1.688-.76-1.688-1.697v-6.782c0-.937.756-1.696 1.688-1.696h10.125c.932 0 1.688.76 1.688 1.696v5.978M18.563 15.26h3.375a3.383 3.383 0 0 1 3.375 3.392v3.391c0 .937-.756 1.696-1.688 1.696h-2.574"/>
        <ellipse cx="18.984" cy="23.315" rx="2.109" ry="2.12"/>
        <ellipse cx="9.703" cy="23.315" rx="2.109" ry="2.12"/>
        <path d="M16.918 23.74H11.77M25.313 18.652h-3.375M1.133 14.855A10.212 10.212 0 0 1 2.57 3.405 10.092 10.092 0 0 1 13.731.671a10.173 10.173 0 0 1 6.519 9.502M10.125 0a13.433 13.433 0 0 0-4.219 10.174M10.125 0a13.433 13.433 0 0 1 4.219 10.174M.577 6.783H19.67"/>
    </g>
</svg>
