<svg xmlns="http://www.w3.org/2000/svg" width="24" height="25" viewBox="0 0 24 25">
    <g fill="none" fill-rule="evenodd" stroke="#F46924" stroke-linecap="round" stroke-linejoin="round" stroke-width="1.25">
        <path d="M13.477 15.467h8.12a1.48 1.48 0 0 0 1.477-1.483V2.856a1.48 1.48 0 0 0-1.476-1.484H5.355A1.48 1.48 0 0 0 3.88 2.856V12.5M3.879 5.823h19.195M6.832 10.274h2.215"/>
        <path d="M16.799 9.533a1.84 1.84 0 0 0-2.06-.647 1.854 1.854 0 0 0-1.262 1.76c0 .798.508 1.506 1.262 1.759a1.84 1.84 0 0 0 2.06-.647 1.84 1.84 0 0 0 2.06.647 1.854 1.854 0 0 0 1.262-1.76c0-.798-.508-1.507-1.262-1.76a1.84 1.84 0 0 0-2.06.648zM.926 14.726v8.902M.926 22.144h16.242a2.96 2.96 0 0 0-2.953-2.967h-3.692a2.96 2.96 0 0 0-2.953-2.968H.926M6.832 19.177h3.691"/>
    </g>
</svg>
