<svg xmlns="http://www.w3.org/2000/svg" width="24" height="25" viewBox="0 0 24 25">
    <g fill="none" fill-rule="evenodd" stroke="#F46924" stroke-linecap="round" stroke-linejoin="round" stroke-width="1.25" transform="translate(.188 .63)">
        <ellipse cx="8.121" cy="10.757" rx="2.584" ry="2.596"/>
        <path d="M3.691 18.546c0-2.458 1.984-4.45 4.43-4.45 2.447 0 4.43 1.992 4.43 4.45H3.69zM14.027 11.128h4.43M14.027 14.095h5.907"/>
        <path d="M21.41 5.193H2.215A1.48 1.48 0 0 0 .738 6.677v14.837c0 .819.661 1.483 1.477 1.483h2.953c0-.82.661-1.483 1.477-1.483a1.48 1.48 0 0 1 1.476 1.483h7.383c0-.82.661-1.483 1.476-1.483a1.48 1.48 0 0 1 1.477 1.483h2.953a1.48 1.48 0 0 0 1.477-1.483V6.677a1.48 1.48 0 0 0-1.477-1.484zM22.887 2.226A1.48 1.48 0 0 0 21.41.742H2.215A1.48 1.48 0 0 0 .738 2.226"/>
    </g>
</svg>
