<svg xmlns="http://www.w3.org/2000/svg" xmlns:xlink="http://www.w3.org/1999/xlink" width="87" height="25" viewBox="0 0 87 25">
    <defs>
        <path id="a" d="M3.212 5.796L.569 3.216v-.182L3.213.454l3.192 1.77c.895.495.895 1.307 0 1.802L3.273 5.763l-.061.033"/>
        <linearGradient id="b" x1="80.748%" x2="-157.307%" y1="49.998%" y2="49.998%">
            <stop offset="0%" stop-color="#EC942D"/>
            <stop offset="100%" stop-color="#FBDE1E"/>
        </linearGradient>
        <path id="d" d="M10.962 2.638L8.258 0 .278 7.783c.296.304.783.342 1.332.038l9.352-5.183"/>
        <linearGradient id="e" x1="86.245%" x2="-50.14%" y1="17.846%" y2="194.81%">
            <stop offset="0%" stop-color="#DD4245"/>
            <stop offset="100%" stop-color="#B72162"/>
        </linearGradient>
        <path id="g" d="M10.962 5.487L1.61.304C1.06 0 .574.037.279.342l7.979 7.783 2.704-2.638"/>
        <linearGradient id="h" x1="-50.749%" x2="60.607%" y1="-95.6%" y2="48.887%">
            <stop offset="0%" stop-color="#6CB966"/>
            <stop offset="100%" stop-color="#299567"/>
        </linearGradient>
    </defs>
    <g fill="none" fill-rule="evenodd">
        <path fill="#0A0B09" d="M83.296 25H3.204C1.442 25 0 23.594 0 21.875V3.125C0 1.406 1.442 0 3.204 0h80.092C85.058 0 86.5 1.406 86.5 3.125v18.75c0 1.719-1.442 3.125-3.204 3.125"/>
        <path fill="#9E9F9B" d="M83.296 0H3.204C1.442 0 0 1.406 0 3.125v18.75C0 23.594 1.442 25 3.204 25h80.092c1.762 0 3.204-1.406 3.204-3.125V3.125C86.5 1.406 85.058 0 83.296 0zm0 .5c1.484 0 2.691 1.177 2.691 2.625v18.75c0 1.448-1.207 2.625-2.69 2.625H3.203C1.72 24.5.513 23.323.513 21.875V3.125C.513 1.677 1.72.5 3.203.5h80.093z"/>
        <path fill="#FFFFFE" d="M30.383 6.402c0 .524-.16.941-.478 1.252-.361.37-.832.555-1.412.555a1.96 1.96 0 0 1-1.415-.563 1.863 1.863 0 0 1-.582-1.396c0-.556.194-1.02.582-1.396a1.96 1.96 0 0 1 1.415-.563c.276 0 .539.053.79.157.25.105.45.244.6.42l-.337.329c-.255-.296-.605-.444-1.053-.444-.405 0-.754.138-1.05.416-.295.277-.443.638-.443 1.081 0 .443.148.804.444 1.081.295.278.644.416 1.05.416.428 0 .787-.139 1.073-.418.186-.181.293-.435.322-.76h-1.396v-.45h1.863c.018.098.027.192.027.283"/>
        <path fill="#FFFFFE" d="M30.383 6.402h-.064c0 .512-.154.91-.459 1.207v.001c-.35.357-.801.536-1.367.536-.54 0-.992-.18-1.37-.545a1.799 1.799 0 0 1-.563-1.351c0-.541.187-.987.564-1.351.377-.365.829-.545 1.37-.545.266 0 .52.05.763.152.243.101.435.235.578.401l.049-.04-.046-.044-.338.33.046.044.049-.04c-.266-.311-.64-.468-1.102-.467-.42 0-.789.146-1.094.434-.308.288-.464.67-.463 1.126 0 .457.155.838.463 1.126a1.55 1.55 0 0 0 1.094.435c.443 0 .822-.147 1.12-.438.198-.194.31-.463.34-.798l.006-.068h-1.402V6.18h1.8V6.12l-.064.011c.017.095.026.185.026.272h.128c0-.095-.01-.193-.028-.294l-.01-.051h-1.98v.575h1.46v-.063l-.064-.005c-.028.315-.13.552-.304.721-.275.268-.613.4-1.028.4-.39 0-.72-.131-1.005-.398-.283-.267-.423-.607-.424-1.037 0-.43.141-.77.424-1.037a1.414 1.414 0 0 1 1.005-.398c.434 0 .76.14 1.004.422l.044.052.388-.378.042-.04-.038-.044a1.653 1.653 0 0 0-.626-.436 2.102 2.102 0 0 0-.814-.162c-.57 0-1.061.194-1.46.581-.4.386-.602.87-.601 1.44 0 .57.201 1.054.601 1.44.399.387.89.582 1.46.581.593 0 1.086-.192 1.46-.574l-.048-.043.046.044c.332-.324.496-.76.496-1.296h-.064M33.336 4.836h-1.75v1.189h1.578v.45h-1.579v1.19h1.751v.46h-2.244v-3.75h2.244v.46"/>
        <path fill="#FFFFFE" d="M33.336 4.836v-.063h-1.815v1.315H33.1v.324h-1.579v1.315h1.751v.335h-2.116V4.438h2.116v.398h.064v-.063.063h.065v-.524h-2.373v3.875H33.4v-.585h-1.752V6.537h1.58v-.574h-1.58V4.898h1.752v-.062h-.065M35.42 8.125h-.495v-3.29h-1.073v-.46h2.641v.46H35.42v3.29"/>
        <path fill="#FFFFFE" d="M35.42 8.125v-.063h-.431V4.774h-1.074v-.335h2.514v.335h-1.074v3.352h.065v-.063.063h.064V4.898h1.073v-.585h-2.77v.585h1.074v3.29h.623v-.063h-.064M38.405 8.125h.494v-3.75h-.494z"/>
        <path fill="#FFFFFE" d="M38.405 8.125h.064V4.437h.365v3.625h-.43v.063h.065-.064v.063h.558V4.312h-.622v3.875h.064v-.062M41.09 8.125h-.495v-3.29h-1.073v-.46h2.641v.46H41.09v3.29"/>
        <path fill="#FFFFFE" d="M41.09 8.125v-.063h-.43V4.774h-1.074v-.335h2.513v.335h-1.074v3.352h.064v-.063.063h.064V4.898h1.074v-.585h-2.77v.585h1.074v3.29h.622v-.063h-.064M44.71 7.326a1.43 1.43 0 0 0 1.045.421c.412 0 .76-.14 1.044-.42.285-.282.427-.64.427-1.077 0-.436-.142-.795-.427-1.076a1.427 1.427 0 0 0-1.044-.421c-.412 0-.76.14-1.045.42-.284.282-.426.64-.426 1.077 0 .436.142.795.426 1.076zm2.454.315c-.377.378-.847.568-1.41.568-.561 0-1.03-.19-1.408-.568a1.893 1.893 0 0 1-.567-1.391c0-.548.189-1.012.567-1.39.377-.38.847-.569 1.409-.569.558 0 1.027.19 1.407.57.379.381.569.844.569 1.389 0 .548-.19 1.012-.567 1.39z"/>
        <path fill="#FFFFFE" d="M44.71 7.326l-.045.044c.295.292.663.441 1.09.44.426.001.795-.147 1.09-.44.297-.292.446-.67.446-1.12 0-.45-.15-.827-.446-1.12a1.494 1.494 0 0 0-1.09-.44c-.427 0-.795.147-1.09.44-.296.293-.446.67-.446 1.12 0 .45.15.828.446 1.12l.091-.088c-.272-.269-.408-.609-.408-1.032 0-.423.136-.763.408-1.032.275-.27.602-.402.999-.403.397 0 .725.132.999.402.272.27.408.61.408 1.033 0 .423-.136.763-.408 1.032-.274.27-.602.403-1 .404a1.367 1.367 0 0 1-.998-.404l-.046.044zm2.454.315l-.045-.044c-.367.367-.817.549-1.364.55-.548-.001-.997-.183-1.363-.55l-.002-.002.002.002a1.83 1.83 0 0 1-.549-1.347c.001-.534.182-.979.549-1.347.366-.367.815-.549 1.363-.55.544.001.992.184 1.361.553.368.37.55.813.55 1.344 0 .534-.181.979-.547 1.347l.091.087c.39-.389.585-.872.585-1.434 0-.559-.197-1.04-.587-1.431-.39-.393-.88-.59-1.453-.59-.577 0-1.067.197-1.455.587-.39.39-.585.872-.585 1.434 0 .562.196 1.045.585 1.434l.001.002-.001-.002c.388.391.878.588 1.455.587.576 0 1.067-.196 1.455-.587l-.046-.043zM48.424 8.125v-3.75h.602l1.868 2.917h.021l-.021-.723V4.375h.494v3.75h-.516l-1.954-3.059h-.022l.022.723v2.336h-.494"/>
        <path fill="#FFFFFE" d="M48.424 8.125h.064V4.437h.502l1.868 2.918h.123l-.023-.786V4.438h.366v3.625h-.416l-1.955-3.06h-.122l.023.787v2.272h-.43v.063h.064-.064v.063h.558v-2.4l-.022-.723-.064.001v.063h.022v-.063l-.054.033 1.973 3.088h.615V4.313h-.622V6.57l.021.723.064-.002V7.23h-.021v.062l.055-.033-1.888-2.947h-.701v3.875h.064v-.062M68.518 18.75h1.196v-7.813h-1.196v7.813zm10.77-4.999l-1.371 3.388h-.041l-1.423-3.388h-1.288l2.133 4.735-1.216 2.633h1.248l3.287-7.368h-1.33zm-6.781 4.112c-.392 0-.938-.191-.938-.664 0-.603.68-.834 1.267-.834.526 0 .773.11 1.093.261-.093.724-.732 1.236-1.422 1.236zm.144-4.282c-.866 0-1.762.372-2.133 1.196l1.061.432c.227-.432.65-.573 1.093-.573.618 0 1.246.362 1.257 1.005v.08a2.697 2.697 0 0 0-1.247-.301c-1.144 0-2.309.613-2.309 1.759 0 1.045.938 1.72 1.99 1.72.803 0 1.246-.353 1.525-.765h.04v.603h1.155v-2.995c0-1.388-1.061-2.161-2.432-2.161zm-7.389 1.122h-1.7v-2.679h1.7a1.37 1.37 0 0 1 1.401 1.34c0 .605-.507 1.338-1.401 1.338zm-.03-3.766h-2.865v7.813h1.194v-2.96h1.67c1.325 0 2.628-.936 2.628-2.427 0-1.49-1.303-2.426-2.628-2.426zm-15.623 6.927c-.826 0-1.517-.675-1.517-1.6 0-.937.691-1.622 1.517-1.622.816 0 1.455.685 1.455 1.621 0 .926-.639 1.6-1.455 1.6zm1.373-3.675h-.041c-.269-.312-.784-.594-1.435-.594-1.363 0-2.611 1.167-2.611 2.668 0 1.49 1.248 2.648 2.611 2.648.65 0 1.166-.282 1.435-.604h.04v.382c0 1.018-.556 1.562-1.454 1.562-.733 0-1.188-.514-1.373-.947l-1.043.423c.3.705 1.094 1.57 2.416 1.57 1.404 0 2.59-.805 2.59-2.768v-4.773h-1.135v.433zm1.962 4.561h1.197v-7.814h-1.197v7.814zm2.962-2.578a1.475 1.475 0 0 1 1.424-1.55c.476 0 .878.231 1.012.564l-2.436.986zm3.716-.886c-.227-.593-.919-1.691-2.333-1.691-1.404 0-2.57 1.077-2.57 2.658 0 1.49 1.156 2.658 2.704 2.658 1.25 0 1.972-.745 2.272-1.178l-.93-.604c-.309.443-.732.735-1.342.735-.609 0-1.042-.272-1.321-.805l3.644-1.47-.124-.303zm-29.03-.875v1.127h2.766c-.083.634-.3 1.098-.63 1.42-.403.393-1.032.825-2.136.825-1.704 0-3.036-1.339-3.036-3 0-1.662 1.332-3 3.036-3 .918 0 1.59.352 2.084.805l.816-.795c-.692-.645-1.61-1.139-2.9-1.139-2.333 0-4.295 1.854-4.295 4.13 0 2.275 1.962 4.127 4.295 4.127 1.259 0 2.208-.402 2.951-1.158.764-.745 1.002-1.792 1.002-2.638 0-.262-.02-.503-.062-.704h-3.891zm7.098 3.453c-.826 0-1.538-.665-1.538-1.61 0-.958.712-1.612 1.538-1.612.826 0 1.538.654 1.538 1.611 0 .946-.712 1.61-1.538 1.61zm0-4.269c-1.507 0-2.736 1.117-2.736 2.658 0 1.53 1.229 2.658 2.736 2.658 1.507 0 2.736-1.128 2.736-2.658 0-1.54-1.229-2.658-2.736-2.658zm5.968 4.269c-.826 0-1.539-.665-1.539-1.61 0-.958.713-1.612 1.539-1.612.825 0 1.537.654 1.537 1.611 0 .946-.712 1.61-1.537 1.61zm0-4.269c-1.508 0-2.736 1.117-2.736 2.658 0 1.53 1.228 2.658 2.736 2.658 1.507 0 2.735-1.128 2.735-2.658 0-1.54-1.228-2.658-2.735-2.658z"/>
        <path fill="#60C2E3" d="M6.686 4.717c-.186.192-.296.49-.296.877v13.812c0 .387.11.685.296.877l.048.045 7.931-7.737v-.182L6.734 4.672l-.048.045"/>
        <g transform="translate(14.096 9.375)">
            <mask id="c" fill="#fff">
                <use xlink:href="#a"/>
            </mask>
            <path fill="url(#b)" d="M3.212 5.796L.569 3.216v-.182L3.213.454l3.192 1.77c.895.495.895 1.307 0 1.802L3.273 5.763l-.061.033" mask="url(#c)"/>
        </g>
        <g transform="translate(6.407 12.5)">
            <mask id="f" fill="#fff">
                <use xlink:href="#d"/>
            </mask>
            <path fill="url(#e)" d="M10.962 2.638L8.258 0 .278 7.783c.296.304.783.342 1.332.038l9.352-5.183" mask="url(#f)"/>
        </g>
        <g transform="translate(6.407 4.375)">
            <mask id="i" fill="#fff">
                <use xlink:href="#g"/>
            </mask>
            <path fill="url(#h)" d="M10.962 5.487L1.61.304C1.06 0 .574.037.279.342l7.979 7.783 2.704-2.638" mask="url(#i)"/>
        </g>
    </g>
</svg>
