<?xml version="1.0" encoding="UTF-8"?>
<svg width="16px" height="16px" viewBox="0 0 16 16" version="1.1" xmlns="http://www.w3.org/2000/svg" xmlns:xlink="http://www.w3.org/1999/xlink">
    <!-- Generator: Sketch 52.5 (67469) - http://www.bohemiancoding.com/sketch -->
    <title>SA</title>
    <desc>Created with Sketch.</desc>
    <defs>
        <circle id="path-1" cx="8" cy="8" r="8"></circle>
        <linearGradient x1="50%" y1="0%" x2="50%" y2="100%" id="linearGradient-3">
            <stop stop-color="#FFFFFF" offset="0%"></stop>
            <stop stop-color="#F0F0F0" offset="100%"></stop>
        </linearGradient>
        <rect id="path-4" x="0" y="0" width="22" height="16" rx="1.6"></rect>
    </defs>
    <g id="Page-1" stroke="none" stroke-width="1" fill="none" fill-rule="evenodd">
        <g id="SA">
            <mask id="mask-2" fill="white">
                <use xlink:href="#path-1"></use>
            </mask>
            <use id="Oval-Copy" fill="#D8D8D8" xlink:href="#path-1"></use>
            <g mask="url(#mask-2)">
                <g transform="translate(-3.000000, 0.000000)">
                    <mask id="mask-5" fill="white">
                        <use xlink:href="#path-4"></use>
                    </mask>
                    <use id="Mask" stroke="none" fill="#FFFFFF" fill-rule="evenodd" xlink:href="#path-4"></use>
                    <rect id="Mask-Copy" stroke="none" fill="#128C4B" fill-rule="evenodd" mask="url(#mask-5)" x="0" y="0" width="22" height="16"></rect>
                    <path d="M5.23809524,9.6 L13.6190476,9.6 L13.6190476,8.54168701 C13.6190476,8.24252154 13.831049,8.10792796 14.0938139,8.24169922 L14.6666667,8.53333333 L14.6666667,9.6 L16.2331877,9.6 C16.5251901,9.6 16.7619048,9.84472046 16.7619048,10.1383301 L16.7619048,10.6666667 C16.7619048,11.2557704 16.2845724,11.7333333 15.6978767,11.7333333 L14.1521905,11.7333333 C13.8577438,11.7333333 13.6190476,11.4859375 13.6190476,11.2 L13.6190476,10.6666667 L6.81310953,10.6666667 C6.52183718,10.6666667 6.12202381,10.5 5.90749977,10.2815755 L5.23809524,9.6 Z" id="Rectangle-455" stroke="none" fill="#FFFFFF" fill-rule="evenodd" mask="url(#mask-5)"></path>
                    <path d="M5.23809524,6.66916504 C5.23809524,6.52050929 5.31994048,6.31666667 5.4272025,6.20745443 L5.5727975,6.05921224 C5.67723856,5.95287226 5.68005952,5.78333333 5.5727975,5.67412109 L5.4272025,5.52587891 C5.32276144,5.41953892 5.23809524,5.21918132 5.23809524,5.06416829 L5.23809524,4.53583171 C5.23809524,4.38717596 5.3665539,4.26666667 5.50245376,4.26666667 L6.02135577,4.26666667 C6.16735694,4.26666667 6.28571429,4.38081868 6.28571429,4.53583171 L6.28571429,5.06416829 C6.28571429,5.21282404 6.33405413,5.23489583 6.40720331,5.0859375 L6.68803478,4.5140625 C6.75513132,4.37742955 6.93283117,4.26666667 7.08324578,4.26666667 L8.10723041,4.26666667 C8.25840288,4.26666667 8.38095238,4.39036458 8.38095238,4.53333333 L8.38095238,4.53333333 C8.38095238,4.68060927 8.25249372,4.8 8.11659386,4.8 L7.59769185,4.8 C7.45169067,4.8 7.33333333,4.92369792 7.33333333,5.06666667 L7.33333333,5.06666667 C7.33333333,5.2139426 7.46179199,5.33333333 7.59769185,5.33333333 L8.11659386,5.33333333 C8.26259504,5.33333333 8.38095238,5.4480306 8.38095238,5.59492187 L8.38095238,7.20507812 C8.38095238,7.34954949 8.25249372,7.46666667 8.11659386,7.46666667 L7.59769185,7.46666667 C7.45169067,7.46666667 7.33333333,7.35251465 7.33333333,7.19750163 L7.33333333,6.66916504 C7.33333333,6.52050929 7.45482236,6.4 7.5952381,6.4 L7.5952381,6.4 C7.7398841,6.4 7.85714286,6.27630208 7.85714286,6.13333333 L7.85714286,6.13333333 C7.85714286,5.9860574 7.7286842,5.86666667 7.59278434,5.86666667 L7.07388233,5.86666667 C6.92788115,5.86666667 6.80952381,5.99221598 6.80952381,6.13087413 L6.80952381,7.20245921 C6.80952381,7.34837696 6.68803478,7.46666667 6.54761905,7.46666667 L6.54761905,7.46666667 C6.40297304,7.46666667 6.28571429,7.35251465 6.28571429,7.19750163 L6.28571429,6.66916504 C6.28571429,6.52050929 6.16422526,6.4 6.02380952,6.4 L6.02380952,6.4 C5.87916352,6.4 5.76190476,6.51415202 5.76190476,6.66916504 L5.76190476,7.19750163 C5.76190476,7.34615737 5.64041574,7.46666667 5.5,7.46666667 L5.5,7.46666667 C5.35535399,7.46666667 5.23809524,7.35251465 5.23809524,7.19750163 L5.23809524,6.66916504 Z" id="Rectangle-456" stroke="none" fill="#FFFFFF" fill-rule="evenodd" mask="url(#mask-5)"></path>
                    <path d="M13.6190476,6.66916504 C13.6190476,6.52050929 13.7008929,6.31666667 13.8081549,6.20745443 L13.9537499,6.05921224 C14.0581909,5.95287226 14.0610119,5.78333333 13.9537499,5.67412109 L13.8081549,5.52587891 C13.7037138,5.41953892 13.6190476,5.21918132 13.6190476,5.06416829 L13.6190476,4.53583171 C13.6190476,4.38717596 13.7475063,4.26666667 13.8834061,4.26666667 L14.4023081,4.26666667 C14.5483093,4.26666667 14.6666667,4.38081868 14.6666667,4.53583171 L14.6666667,5.06416829 C14.6666667,5.21282404 14.7150065,5.23489583 14.7881557,5.0859375 L15.0689872,4.5140625 C15.1360837,4.37742955 15.3137836,4.26666667 15.4641982,4.26666667 L16.4881828,4.26666667 C16.6393553,4.26666667 16.7619048,4.39036458 16.7619048,4.53333333 L16.7619048,4.53333333 C16.7619048,4.68060927 16.6334461,4.8 16.4975462,4.8 L15.9786442,4.8 C15.8326431,4.8 15.7142857,4.92369792 15.7142857,5.06666667 L15.7142857,5.06666667 C15.7142857,5.2139426 15.8427444,5.33333333 15.9786442,5.33333333 L16.4975462,5.33333333 C16.6435474,5.33333333 16.7619048,5.4480306 16.7619048,5.59492187 L16.7619048,7.20507812 C16.7619048,7.34954949 16.6334461,7.46666667 16.4975462,7.46666667 L15.9786442,7.46666667 C15.8326431,7.46666667 15.7142857,7.35251465 15.7142857,7.19750163 L15.7142857,6.66916504 C15.7142857,6.52050929 15.8357747,6.4 15.9761905,6.4 L15.9761905,6.4 C16.1208365,6.4 16.2380952,6.27630208 16.2380952,6.13333333 L16.2380952,6.13333333 C16.2380952,5.9860574 16.1096366,5.86666667 15.9737367,5.86666667 L15.4548347,5.86666667 C15.3088335,5.86666667 15.1904762,5.99221598 15.1904762,6.13087413 L15.1904762,7.20245921 C15.1904762,7.34837696 15.0689872,7.46666667 14.9285714,7.46666667 L14.9285714,7.46666667 C14.7839254,7.46666667 14.6666667,7.35251465 14.6666667,7.19750163 L14.6666667,6.66916504 C14.6666667,6.52050929 14.5451776,6.4 14.4047619,6.4 L14.4047619,6.4 C14.2601159,6.4 14.1428571,6.51415202 14.1428571,6.66916504 L14.1428571,7.19750163 C14.1428571,7.34615737 14.0213681,7.46666667 13.8809524,7.46666667 L13.8809524,7.46666667 C13.7363064,7.46666667 13.6190476,7.35251465 13.6190476,7.19750163 L13.6190476,6.66916504 Z" id="Rectangle-456" stroke="none" fill="#FFFFFF" fill-rule="evenodd" mask="url(#mask-5)"></path>
                    <path d="M12.5714286,5.06416829 C12.5714286,5.21282404 12.4895833,5.41666667 12.3823213,5.52587891 L12.2367263,5.67412109 C12.1322853,5.78046108 12.1294643,5.95 12.2367263,6.05921224 L12.3823213,6.20745443 C12.4867624,6.31379441 12.5714286,6.51415202 12.5714286,6.66916504 L12.5714286,7.19750163 C12.5714286,7.34615737 12.459315,7.46666667 12.3070701,7.46666667 L11.788168,7.46666667 C11.6421669,7.46666667 11.5238095,7.35251465 11.5238095,7.19750163 L11.5238095,6.66916504 C11.5238095,6.52050929 11.4754697,6.4984375 11.4023205,6.64739583 L11.121489,7.21927083 C11.0543925,7.35590378 10.8766926,7.46666667 10.7405105,7.46666667 L9.6880609,7.46666667 C9.54474882,7.46666667 9.42857143,7.34296875 9.42857143,7.2 L9.42857143,7.2 C9.42857143,7.05272407 9.54068502,6.93333333 9.69292995,6.93333333 L10.211832,6.93333333 C10.3578331,6.93333333 10.4761905,6.80963542 10.4761905,6.66666667 L10.4761905,6.66666667 C10.4761905,6.51939073 10.3640769,6.4 10.211832,6.4 L9.69292995,6.4 C9.54692877,6.4 9.42857143,6.28530273 9.42857143,6.13841146 L9.42857143,4.52825521 C9.42857143,4.38378385 9.54068502,4.26666667 9.69292995,4.26666667 L10.211832,4.26666667 C10.3578331,4.26666667 10.4761905,4.38081868 10.4761905,4.53583171 L10.4761905,5.06416829 C10.4761905,5.21282404 10.3547015,5.33333333 10.2142857,5.33333333 L10.2142857,5.33333333 C10.0696397,5.33333333 9.95238095,5.45703125 9.95238095,5.6 L9.95238095,5.6 C9.95238095,5.74727593 10.0644945,5.86666667 10.2167395,5.86666667 L10.7356415,5.86666667 C10.8816427,5.86666667 11,5.74111735 11,5.60245921 L11,4.53087413 C11,4.38495638 11.121489,4.26666667 11.2619048,4.26666667 L11.2619048,4.26666667 C11.4065508,4.26666667 11.5238095,4.38081868 11.5238095,4.53583171 L11.5238095,5.06416829 C11.5238095,5.21282404 11.6452985,5.33333333 11.7857143,5.33333333 L11.7857143,5.33333333 C11.9303603,5.33333333 12.047619,5.21918132 12.047619,5.06416829 L12.047619,4.53583171 C12.047619,4.38717596 12.1691081,4.26666667 12.3095238,4.26666667 L12.3095238,4.26666667 C12.4541698,4.26666667 12.5714286,4.38081868 12.5714286,4.53583171 L12.5714286,5.06416829 L12.5714286,5.06416829 Z" id="Rectangle-456" stroke="none" fill="#FFFFFF" fill-rule="evenodd" mask="url(#mask-5)"></path>
                </g>
            </g>
        </g>
    </g>
</svg>