<svg xmlns="http://www.w3.org/2000/svg" width="83" height="36" viewBox="0 0 83 36">
    <defs>
        <linearGradient id="a" x1=".001%" y1="50%" y2="50%">
            <stop offset="2.75%" stop-color="#F3E69F"/>
            <stop offset="14.31%" stop-color="#AC6F29"/>
            <stop offset="50%" stop-color="#FDF5AD"/>
            <stop offset="60%" stop-color="#915924"/>
            <stop offset="82%" stop-color="#D99850"/>
            <stop offset="100%" stop-color="#915924"/>
        </linearGradient>
    </defs>
    <g fill="none" fill-rule="evenodd">
        <path fill="url(#a)" fill-rule="nonzero" d="M17.346 21.029v2.308S3.628 23.43.32 18.773l.255-2.61s.522 2.33 8.191 3.717c0 0 3.953.805 8.58.859v.29zm7.377 2.536l-.008-.088c-.048.005-4.9.428-10.306.093-4.984-.309-11.472-1.344-14.077-4.523l-.068.056c2.625 3.203 9.139 4.246 14.14 4.556 1.68.104 3.307.135 4.752.128 3.213-.016 5.534-.218 5.567-.222zm-18.428-.34c-2.633-.669-4.33-1.363-5.756-3.121l-.137.111c1.457 1.796 3.18 2.503 5.85 3.18l.043-.17zm4.384 2.417c8.459 1.266 16.566.148 16.566.148v-1.295c-12.249 1.236-17.771-.353-17.771-.353-7.755-1.238-8.899-3.77-8.899-3.77v1.09c1.644 3.207 10.104 4.18 10.104 4.18zm-8.254 1.62c2.35 3.208 13.835 3.796 13.835 3.796 5.434.442 12.486-.618 12.486-.618v-1.088c-8.99 1.81-18.067.147-18.067.147-7.579-1.208-8.783-3.474-8.783-3.474l.529 1.237zm9.457 5.798c-5.287-.794-7.313-2.532-7.313-2.532.059.148.998 1.178.998 1.178 2.292 1.618 7.666 2.296 7.666 2.296 10.37 1.09 15.512-.558 15.512-.558v-.675c-9.16 1.795-16.863.291-16.863.291zm2.292 2.621l-.07-.117-.547-.913s-5.023-.62-7.373-2.326c0 0 2.027 2.09 3.995 2.502 0 0 .763.413 3.995.854zM6.595 14.927c-4.846-1.266-4.787-3.622-4.787-3.622l-.411 1.237c-.148 3.446 9.605 4.71 9.605 4.71 9.898 1.443 17.744-.148 17.744-.148v-1.323c-14.183 2.003-22.15-.854-22.15-.854zM5.421 5.773l-.97 1.089S4.187 8.687 6.89 9.6c0 0 7.577 3.562 21.856 1.089V9.394s-5.22 1.443-14.213.735c0 0-10.463-1.119-9.112-4.356zm2.937-2.68L6.595 4.567s-.968 1.07.353 2.178c0 0 3.664 2.711 12.542 2.531V7.332s-6.579 0-9.693-1.56c0 0-2.907-.676-1.439-2.678zM15.07 5.98l.748-1.59s-5.404-.736-4.759-2.414c0 0 .266-.53 1.117-.853 0 0-2.085.746-2.613 1.265-.291.32-1.47 1.119.647 2.384 0 0 2.524 1.09 4.86 1.208zm10.177-2.43l-1.762-1.31s-4.964 1.09-8.636-.264c0 0-2.409-1.118.969-1.884 0 0-3.612.426-4.2 1.73 0 0-.646 1.332 3.848 2.097 0 0 5.111.883 9.781-.369zM9.209 34.709s1.998 1.119 2.233 1.178h1.908s-1.379.147-4.14-1.178zm1.8-32.45c.054 1.433 4.809 2.13 4.809 2.13 5.356.677 9.665-.519 9.665-.519l-.236-.32c-8.948 1.8-12.805-.532-12.805-.532-1.915-1.1 0-1.972 0-1.972-1.67.623-1.434 1.214-1.434 1.214zM5.695 9.67C3.963 8.722 4.14 7.304 4.14 7.304l-.315.566c.098 2.833 6.758 4.014 6.758 4.014l.135-.604c-2.383-.334-5.022-1.61-5.022-1.61zm17.691 3.564l-.003-.088c-.068.002-6.92.218-12.68-1.084-.019-.004-1.851-.362-3.614-1.06-1.616-.641-3.504-1.705-3.317-3.14l-.088-.012c-.37 2.841 6.7 4.24 7 4.299 2.994.676 6.281.943 8.761 1.044a59.3 59.3 0 0 0 3.941.041zm-15.43 1.135C1.69 12.562 2.16 10.522 2.16 10.522l-.175.53c-.236 3.041 8.733 4.453 8.733 4.453 6.638 1.1 16.233.159 16.233.159v-.55c-11.69 1.466-18.994-.746-18.994-.746zm16.568 4.068l-.004-.089c-.057.003-5.846.2-11.592-.342-3.373-.319-6.072-.826-8.02-1.51-2.421-.847-3.68-1.967-3.742-3.326l-.088.005c.114 2.532 4.099 4.187 11.843 4.918 3.316.313 6.646.38 8.883.38 1.642 0 2.695-.036 2.72-.036zM.575 21.552v.469c1.683 2.886 8.05 3.749 8.05 3.749v-.46C2.28 24.304.575 21.553.575 21.553zm6.252 5.92c-4.714-1.416-5.344-2.874-5.35-2.888l-.164.063c.023.063.64 1.546 5.463 2.994l.05-.17zm21.932 1.476l-.027-.174c-.207.032-20.826 3.117-27.096-3.472l-.127.122c3.27 3.437 10.376 4.272 16.512 4.272 5.743 0 10.637-.733 10.738-.748zm-25.16.375c4.32 5.445 22.794 3.446 22.794 3.446v-.318C7.33 33.964 3.599 29.323 3.599 29.323z"/>
        <path fill="#121617" d="M11.008 2.26c.055 1.432 4.81 2.13 4.81 2.13 5.356.676 9.665-.52 9.665-.52l-.236-.32c-8.948 1.8-12.805-.532-12.805-.532-1.915-1.1 0-1.972 0-1.972-1.67.623-1.434 1.214-1.434 1.214zM7.957 14.368C1.69 12.562 2.16 10.522 2.16 10.522l-.175.53c-.236 3.041 8.733 4.453 8.733 4.453 6.638 1.1 16.233.159 16.233.159v-.55c-11.69 1.466-18.994-.746-18.994-.746zM28.76 28.948l-.028-.174c-.207.032-20.826 3.117-27.096-3.472l-.127.122c3.27 3.437 10.376 4.272 16.512 4.272 5.743 0 10.637-.733 10.738-.748zM9.21 34.71s1.997 1.118 2.232 1.177h1.908s-1.379.147-4.14-1.178zM23.251 34.97l-.004-.106c-.142.005-14.093.487-17.136-2.807l.034.193c1.281 1.345 4.91 2.248 9.624 2.59 1.875.135 3.675.17 5.04.17 1.462 0 2.424-.04 2.442-.04zM.575 21.552v.469c1.683 2.886 8.05 3.749 8.05 3.749v-.46C2.28 24.304.575 21.553.575 21.553z"/>
        <g fill="#000">
            <path d="M33.268 3.033h.693v7.292h-.693zM35.805 7.925c-.03 1.5 1.05 1.96 2.374 1.96.764 0 1.926-.418 1.926-1.48 0-.828-.826-1.154-1.498-1.318l-1.62-.398c-.856-.214-1.64-.623-1.64-1.756 0-.715.458-2.053 2.506-2.053 1.436 0 2.7.776 2.69 2.267h-.693c-.04-1.113-.958-1.675-1.987-1.675-.948 0-1.824.368-1.824 1.45 0 .685.51.97 1.1 1.114l1.774.439c1.029.276 1.885.725 1.885 1.92 0 .5-.204 2.083-2.782 2.083-1.722 0-2.986-.776-2.904-2.553h.693zM41.898 3.033h.693v6.7h4.075v.591h-4.768z"/>
            <path fill-rule="nonzero" d="M49.499 3.033h.774l2.854 7.292h-.744l-.887-2.268h-3.312l-.876 2.268h-.744L49.5 3.033zm-1.1 4.432h2.863l-1.407-3.738L48.4 7.465z"/>
            <path d="M53.768 3.033h1.019l2.516 6.393 2.507-6.393h1.02v7.292h-.694V4.024h-.02l-2.487 6.3h-.652l-2.496-6.3h-.02v6.3h-.693V3.034zM62.326 3.033h.694v7.292h-.694zM69.857 5.239c-.245-1.124-1.172-1.767-2.232-1.767-1.926 0-2.741 1.614-2.741 3.207 0 1.593.815 3.206 2.741 3.206 1.345 0 2.201-1.041 2.333-2.338h.693c-.193 1.787-1.325 2.93-3.026 2.93-2.293 0-3.434-1.807-3.434-3.798 0-1.992 1.141-3.8 3.434-3.8 1.375 0 2.741.828 2.924 2.36h-.692zM33.217 15.287h5.024v.592H33.91v2.635h4.056v.592H33.91v2.88h4.382v.593h-5.075v-7.292zM44.578 17.492c-.244-1.123-1.172-1.766-2.231-1.766-1.926 0-2.741 1.613-2.741 3.206s.815 3.207 2.74 3.207c1.346 0 2.202-1.042 2.334-2.339h.693c-.194 1.787-1.324 2.931-3.026 2.931-2.293 0-3.434-1.807-3.434-3.799 0-1.991 1.141-3.799 3.434-3.799 1.375 0 2.74.827 2.924 2.36h-.693z"/>
            <path fill-rule="nonzero" d="M49.479 15.133c2.283 0 3.424 1.808 3.424 3.8 0 1.99-1.141 3.799-3.424 3.799-2.293 0-3.434-1.808-3.434-3.8 0-1.991 1.14-3.799 3.434-3.799zm0 7.006c1.915 0 2.73-1.613 2.73-3.207 0-1.593-.815-3.206-2.73-3.206-1.926 0-2.741 1.613-2.741 3.206 0 1.594.815 3.207 2.74 3.207z"/>
            <path d="M53.971 15.287h.775l4.24 6.168h.02v-6.168h.692v7.291h-.774l-4.239-6.168h-.02v6.168h-.694z"/>
            <path fill-rule="nonzero" d="M64.202 15.133c2.282 0 3.424 1.808 3.424 3.8 0 1.99-1.142 3.799-3.424 3.799-2.293 0-3.434-1.808-3.434-3.8 0-1.991 1.141-3.799 3.434-3.799zm0 7.006c1.916 0 2.73-1.613 2.73-3.207 0-1.593-.814-3.206-2.73-3.206-1.926 0-2.74 1.613-2.74 3.206 0 1.594.814 3.207 2.74 3.207z"/>
            <path d="M68.685 15.287h1.019l2.517 6.392 2.506-6.392h1.02v7.291h-.693v-6.3h-.02l-2.487 6.3h-.652l-2.497-6.3h-.02v6.3h-.693v-7.291zM79.22 19.576l-2.863-4.29h.825l2.395 3.697 2.385-3.696h.825l-2.874 4.289v3.002h-.693z"/>
            <path fill-rule="nonzero" d="M35.347 27.54h.774l2.854 7.292h-.744l-.887-2.268h-3.312l-.876 2.268h-.744l2.935-7.292zm-1.1 4.432h2.863l-1.406-3.737-1.458 3.737z"/>
            <path d="M38.852 27.54h.743l1.651 6.383h.02l1.774-6.383h.866l1.783 6.383h.02l1.662-6.383h.693l-2.008 7.292h-.733l-1.845-6.526h-.02l-1.834 6.526h-.754z"/>
            <path fill-rule="nonzero" d="M50.773 27.54h.774l2.854 7.292h-.744l-.887-2.268h-3.312l-.876 2.268h-.744l2.935-7.292zm-1.1 4.432h2.863l-1.407-3.737-1.457 3.737zM55.062 27.54h3.332c1.203 0 2.212.582 2.212 1.9 0 .918-.48 1.675-1.417 1.858v.02c.948.123 1.223.777 1.274 1.645.03.5.03 1.501.336 1.869h-.764c-.173-.286-.173-.828-.194-1.134-.061-1.02-.143-2.155-1.457-2.104h-2.629v3.238h-.693V27.54zm.693 3.463h2.589c.845 0 1.569-.532 1.569-1.42 0-.889-.53-1.45-1.57-1.45h-2.588v2.87zM61.858 27.54h2.517c2.191.052 3.343 1.256 3.343 3.646 0 2.39-1.152 3.595-3.343 3.646h-2.517V27.54zm.693 6.7h1.478c2.089.01 2.996-.879 2.996-3.054s-.907-3.064-2.996-3.053H62.55v6.107z"/>
        </g>
    </g>
</svg>
