<svg xmlns="http://www.w3.org/2000/svg" width="18" height="16" viewBox="0 0 18 16">
    <path fill="#000" fill-rule="nonzero" d="M9 16a.561.561 0 0 1-.406-.174L1.406 8.273A4.862 4.862 0 0 1 .512 2.68 4.792 4.792 0 0 1 4.826 0a4.797 4.797 0 0 1 3.398 1.42l.777.781.776-.781A4.766 4.766 0 0 1 13.183.002c1.288 0 2.497.503 3.405 1.418a4.871 4.871 0 0 1 0 6.859l-7.18 7.546A.565.565 0 0 1 9 16zM4.822 1.13c-.396 0-.79.066-1.17.193a3.674 3.674 0 0 0-2.135 1.864A3.732 3.732 0 0 0 2.21 7.48L9 14.615l6.783-7.128a3.74 3.74 0 0 0 .008-5.265 3.653 3.653 0 0 0-2.61-1.087c-.986 0-1.914.386-2.61 1.087L9.397 3.404a.558.558 0 0 1-.794 0L7.428 2.22a3.698 3.698 0 0 0-2.606-1.09z"/>
</svg>
