<svg xmlns="http://www.w3.org/2000/svg" width="16" height="18" viewBox="0 0 16 18">
    <path fill="#FF6F38" fill-rule="nonzero" d="M1.5 18c-.026 0-.054 0-.082-.002a1.462 1.462 0 0 1-1.034-.523 1.623 1.623 0 0 1-.377-1.19L1.43 5.85c.131-.787.764-1.351 1.506-1.351l.067.001h10.013l.049-.001c.73 0 1.377.573 1.503 1.334l1.425 10.452a1.634 1.634 0 0 1-.498 1.318 1.452 1.452 0 0 1-1.084.393l-12.844.002A.88.88 0 0 1 1.5 18zm-.433-1.585a.464.464 0 0 0 .11.309.42.42 0 0 0 .299.15l.025.001h.025l12.917-.002.046.001a.426.426 0 0 0 .299-.113.46.46 0 0 0 .144-.313v-.032L13.515 6.01a.469.469 0 0 0-.453-.386H2.948a.48.48 0 0 0-.464.403L1.067 16.415zM10.272 3a.493.493 0 0 1-.483-.401A1.984 1.984 0 0 0 7.851.987 1.984 1.984 0 0 0 5.92 2.59a.492.492 0 1 1-.965-.19A2.974 2.974 0 0 1 7.85 0a2.974 2.974 0 0 1 2.906 2.413.495.495 0 0 1-.484.587z"/>
</svg>
