<?xml version="1.0" encoding="UTF-8"?>
<svg width="40px" height="42px" viewBox="0 0 40 42" version="1.1" xmlns="http://www.w3.org/2000/svg" xmlns:xlink="http://www.w3.org/1999/xlink">
    <!-- Generator: Sketch 52.3 (67297) - http://www.bohemiancoding.com/sketch -->
    <title>secure-payment</title>
    <desc>Created with Sketch.</desc>
    <g id="secure-payment" stroke="none" stroke-width="1" fill="none" fill-rule="evenodd">
        <g id="credit-card-lock" transform="translate(0.000000, 1.000000)" fill="#24323E" fill-rule="nonzero">
            <path d="M36.25,27.25 L26.25,27.25 C25.4215729,27.25 24.75,27.9215729 24.75,28.75 L24.75,36.25 C24.75,37.0784271 25.4215729,37.75 26.25,37.75 L36.25,37.75 C37.0784271,37.75 37.75,37.0784271 37.75,36.25 L37.75,28.75 C37.75,27.9215729 37.0784271,27.25 36.25,27.25 Z M27.25,25.25 L35.25,25.25 L35.25,23.75 C35.25,21.540861 33.459139,19.75 31.25,19.75 C29.040861,19.75 27.25,21.540861 27.25,23.75 L27.25,25.25 Z M37.25,25.3949393 C38.6957445,25.8252139 39.75,27.1644897 39.75,28.75 L39.75,36.25 C39.75,38.1829966 38.1829966,39.75 36.25,39.75 L26.25,39.75 C24.3170034,39.75 22.75,38.1829966 22.75,36.25 L22.75,28.75 C22.75,27.1644897 23.8042555,25.8252139 25.25,25.3949393 L25.25,23.75 C25.25,20.4362915 27.9362915,17.75 31.25,17.75 C34.5637085,17.75 37.25,20.4362915 37.25,23.75 L37.25,25.3949393 Z M32.75,9.75 L2.25,9.75 L2.25,23.75 C2.25,24.5784271 2.92157288,25.25 3.75,25.25 L18.75,25.25 L18.75,27.25 L3.75,27.25 C1.81700338,27.25 0.25,25.6829966 0.25,23.75 L0.25,3.75 C0.25,1.81700338 1.81700338,0.25 3.75,0.25 L31.25,0.25 C33.1829966,0.25 34.75,1.81700338 34.75,3.75 L34.75,13.75 L32.75,13.75 L32.75,9.75 Z M32.75,7.75 L32.75,3.75 C32.75,2.92157288 32.0784271,2.25 31.25,2.25 L3.75,2.25 C2.92157288,2.25 2.25,2.92157288 2.25,3.75 L2.25,7.75 L32.75,7.75 Z M6.25,15.995 L6.25,13.995 L16.25,13.995 L16.25,15.995 L6.25,15.995 Z M6.25,20.995 L6.25,18.995 L11.25,18.995 L11.25,20.995 L6.25,20.995 Z M31.25,31.9233333 L31.25,30.9233333 L31.25,31.9233333 Z M32.875,32.5483333 C32.875,33.4457961 32.1474627,34.1733333 31.25,34.1733333 C30.3525373,34.1733333 29.625,33.4457961 29.625,32.5483333 C29.625,31.6508706 30.3525373,30.9233333 31.25,30.9233333 C32.1474627,30.9233333 32.875,31.6508706 32.875,32.5483333 Z M31.25,31.9233333 L31.25,32.9233333 C31.4571068,32.9233333 31.625,32.7554401 31.625,32.5483333 C31.625,32.3412266 31.4571068,32.1733333 31.25,32.1733333 C31.0428932,32.1733333 30.875,32.3412266 30.875,32.5483333 C30.875,32.7554401 31.0428932,32.9233333 31.25,32.9233333 L31.25,31.9233333 Z" id="Combined-Shape"></path>
        </g>
    </g>
</svg>