<?xml version="1.0" encoding="UTF-8"?>
<svg xmlns="http://www.w3.org/2000/svg" xmlns:xlink="http://www.w3.org/1999/xlink" width="12pt" height="12pt" viewBox="0 0 16 17" version="1.1">
<g id="surface1">
<path style="fill:none;stroke-width:0.995556;stroke-linecap:round;stroke-linejoin:round;stroke:rgb(95.686275%,41.176471%,14.117647%);stroke-opacity:1;stroke-miterlimit:4;" d="M 4.357666 0.5 L 7.294678 2.455882 L 4.683594 4.738971 " transform="matrix(1.066667,0,0,1.0625,1.066667,0)"/>
<path style="fill:none;stroke-width:0.995556;stroke-linecap:round;stroke-linejoin:round;stroke:rgb(95.686275%,41.176471%,14.117647%);stroke-opacity:1;stroke-miterlimit:4;" d="M 12.165283 12.448529 C 10.499023 15.102941 7.17749 16.194853 4.262451 15.047794 C 1.34375 13.904412 -0.344482 10.845588 0.237793 7.764706 C 0.820068 4.6875 3.511719 2.455882 6.646484 2.455882 L 7.294678 2.455882 " transform="matrix(1.066667,0,0,1.0625,1.066667,0)"/>
<path style="fill:none;stroke-width:0.995556;stroke-linecap:round;stroke-linejoin:round;stroke:rgb(95.686275%,41.176471%,14.117647%);stroke-opacity:1;stroke-miterlimit:4;" d="M 13.165039 8.977941 C 13.168701 9.529412 13.099121 10.077206 12.959961 10.610294 " transform="matrix(1.066667,0,0,1.0625,1.066667,0)"/>
<path style="fill:none;stroke-width:0.995556;stroke-linecap:round;stroke-linejoin:round;stroke:rgb(95.686275%,41.176471%,14.117647%);stroke-opacity:1;stroke-miterlimit:4;" d="M 12.165283 5.507353 C 12.465576 5.981618 12.699951 6.488971 12.868408 7.022059 " transform="matrix(1.066667,0,0,1.0625,1.066667,0)"/>
<path style="fill:none;stroke-width:0.995556;stroke-linecap:round;stroke-linejoin:round;stroke:rgb(95.686275%,41.176471%,14.117647%);stroke-opacity:1;stroke-miterlimit:4;" d="M 9.664062 3.194853 C 10.099854 3.422794 10.51001 3.702206 10.883545 4.022059 " transform="matrix(1.066667,0,0,1.0625,1.066667,0)"/>
</g>
</svg>
