<svg xmlns="http://www.w3.org/2000/svg" width="18" height="18" viewBox="0 0 18 18">
    <path fill="#28323E" fill-rule="nonzero" stroke="#25323F" stroke-width=".2" d="M9 1C4.589 1 1 4.589 1 9a7.98 7.98 0 0 0 2.577 5.875l-.02.028.205.176a7.994 7.994 0 0 0 4.634 1.896c.169.012.338.02.51.022.017 0 .035.003.053.003H9c4.411 0 8-3.589 8-8s-3.589-8-8-8zm-.025 15.418l-.078-.002a7.378 7.378 0 0 1-4.51-1.612c.111-.105.234-.194.369-.262L7.414 13.4c.215-.107.346-.345.473-.6a.512.512 0 0 0-.024-.5.514.514 0 0 0-.44-.246l-1.846.001c-.007 0-.639-.065-1.115-.269-.09-.038-.127-.068-.137-.07a.312.312 0 0 1 .04-.073c.66-.938 1.77-2.805 1.808-4.773.003-.11.088-2.702 2.715-2.724 1.56.013 2.299.928 2.643 1.693.172.382.273.838.31 1.392.113 1.717.902 3.336 1.543 4.392a.244.244 0 0 1 .028.183.215.215 0 0 1-.097.134c-.302.18-.695.119-.698.118l-1.938-.004a.482.482 0 0 0-.457.333.5.5 0 0 0 .156.558c.207.163.289.213.321.23l2.217 1.341c.19.104.357.246.492.418a7.326 7.326 0 0 1-4.433 1.483zm4.898-1.832a2.156 2.156 0 0 0-.667-.573l-2.217-1.34a.687.687 0 0 1-.055-.037h1.612c.126.018.632.065 1.067-.195a.791.791 0 0 0 .364-.494.828.828 0 0 0-.096-.625c-.607-1-1.354-2.529-1.46-4.128-.04-.625-.158-1.146-.36-1.592-.413-.92-1.3-2.021-3.173-2.036-3.19.026-3.296 3.26-3.297 3.293-.036 1.882-1.202 3.74-1.702 4.45-.136.194-.179.382-.129.56.055.191.21.34.473.453.558.24 1.257.31 1.315.315h1.77c-.049.094-.115.213-.149.236L4.518 14.01l-.015.007a2.138 2.138 0 0 0-.557.406A7.398 7.398 0 0 1 1.582 9C1.582 4.91 4.91 1.582 9 1.582S16.418 4.91 16.418 9a7.401 7.401 0 0 1-2.545 5.586z"/>
</svg>
