<?xml version="1.0" encoding="UTF-8"?>
<svg width="13px" height="10px" viewBox="0 0 13 10" version="1.1" xmlns="http://www.w3.org/2000/svg" xmlns:xlink="http://www.w3.org/1999/xlink">
    <!-- Generator: Sketch 51.2 (57519) - http://www.bohemiancoding.com/sketch -->
    <title>check-mark copy 4</title>
    <desc>Created with Sketch.</desc>
    <defs></defs>
    <g id="Page-1" stroke="none" stroke-width="1" fill="none" fill-rule="evenodd">
        <g id="Artboard-2" transform="translate(-1228.000000, -242.000000)" fill="#3DCF56">
            <g id="Group" transform="translate(978.000000, 179.000000)">
                <g id="check-mark-copy-4" transform="translate(250.000000, 63.000000)">
                    <g id="Capa_1">
                        <path d="M5.84632609,9.0576087 C5.26076087,9.62065217 4.31063043,9.62065217 3.72534783,9.0576087 L0.439173913,5.89782609 C-0.146391304,5.33505435 -0.146391304,4.42146739 0.439173913,3.85869565 C1.02445652,3.29565217 1.97458696,3.29565217 2.56015217,3.85869565 L4.51806522,5.74103261 C4.66586957,5.88288043 4.90580435,5.88288043 5.0538913,5.74103261 L10.3553478,0.643478261 C10.9406304,0.0804347826 11.8907609,0.0804347826 12.4763261,0.643478261 C12.7575217,0.913858696 12.9155,1.28070652 12.9155,1.66304348 C12.9155,2.04538043 12.7575217,2.41222826 12.4763261,2.6826087 L5.84632609,9.0576087 Z" id="Shape"></path>
                    </g>
                </g>
            </g>
        </g>
    </g>
</svg>